# Blender v2.82 (sub 7) OBJ File: 'mex_moreblocks_gong.blend'
# www.blender.org
mtllib mex_moreblocks_gong.mtl
o Cube_Cube.001
v -0.050000 -0.506463 -0.350000
v -0.050000 0.393537 -0.350000
v -0.050000 -0.506463 -0.450000
v -0.050000 0.393537 -0.450000
v 0.050000 -0.506463 -0.350000
v 0.050000 0.393537 -0.350000
v 0.050000 -0.506463 -0.450000
v 0.050000 0.393537 -0.450000
v -0.050000 -0.506463 0.450000
v -0.050000 0.393537 0.450000
v -0.050000 -0.506463 0.350000
v -0.050000 0.393537 0.350000
v 0.050000 -0.506463 0.450000
v 0.050000 0.393537 0.450000
v 0.050000 -0.506463 0.350000
v 0.050000 0.393537 0.350000
v -0.045000 0.298537 -0.405000
v -0.045000 0.298537 0.405000
v -0.045000 0.388537 -0.405000
v -0.045000 0.388537 0.405000
v 0.045000 0.298537 -0.405000
v 0.045000 0.298537 0.405000
v 0.045000 0.388537 -0.405000
v 0.045000 0.388537 0.405000
v -0.000000 0.150000 -0.009653
v 0.000000 0.350000 -0.030000
v 0.006826 0.150000 -0.006826
v 0.021213 0.350000 -0.021213
v 0.009653 0.150000 0.000000
v 0.030000 0.350000 0.000000
v 0.006826 0.150000 0.006826
v 0.021213 0.350000 0.021213
v -0.000000 0.150000 0.009653
v -0.000000 0.350000 0.030000
v -0.006826 0.150000 0.006826
v -0.021213 0.350000 0.021213
v -0.009653 0.150000 -0.000000
v -0.030000 0.350000 -0.000000
v -0.006826 0.150000 -0.006826
v -0.021213 0.350000 -0.021213
v -0.025000 0.095671 -0.230970
v 0.025000 0.095671 -0.230970
v -0.025000 -0.095671 -0.230970
v 0.025000 -0.095671 -0.230970
v -0.025000 -0.230970 -0.095671
v 0.025000 -0.230970 -0.095671
v -0.025000 -0.230970 0.095671
v 0.025000 -0.230970 0.095671
v -0.025000 -0.095671 0.230970
v 0.025000 -0.095671 0.230970
v -0.025000 0.095671 0.230970
v 0.025000 0.095671 0.230970
v -0.025000 0.230970 0.095671
v 0.025000 0.230970 0.095671
v -0.025000 0.230970 -0.095671
v 0.025000 0.230970 -0.095671
vt 0.005298 0.977320
vt 0.005298 0.017831
vt 0.116409 0.017831
vt 0.116409 0.977320
vt -0.000205 0.979681
vt -0.000205 0.020192
vt 0.110906 0.020192
vt 0.110906 0.979681
vt 0.113791 0.017218
vt 0.113791 0.976706
vt 0.002680 0.976706
vt 0.002680 0.017218
vt 0.001504 0.979681
vt 0.001504 0.020192
vt 0.112615 0.020192
vt 0.112615 0.979681
vt 0.003007 0.111111
vt 0.114118 0.111111
vt 0.114118 0.222222
vt 0.003007 0.222222
vt 0.114118 0.444444
vt 0.003007 0.444444
vt 0.003007 0.333333
vt 0.114118 0.333333
vt -0.000434 0.999999
vt -0.000434 0.000000
vt 0.110677 0.000000
vt 0.110677 0.999999
vt 0.002822 0.999999
vt 0.002822 0.000000
vt 0.113933 0.000000
vt 0.113932 0.999999
vt 0.000000 0.999999
vt 0.000000 0.000000
vt 0.111111 0.000000
vt 0.111111 0.999999
vt -0.000651 0.999999
vt -0.000651 0.000000
vt 0.110460 0.000000
vt 0.110460 0.999999
vt 0.002170 0.000000
vt 0.113281 0.000000
vt 0.113281 0.111111
vt 0.002170 0.111111
vt 0.113281 0.333333
vt 0.002170 0.333333
vt 0.002170 0.222222
vt 0.113281 0.222222
vt 0.001520 0.999999
vt 0.001519 0.000000
vt 0.112630 0.000000
vt 0.112631 0.999999
vt 0.000868 0.999999
vt 0.000868 0.000000
vt 0.111979 0.000000
vt 0.111979 0.999999
vt 0.000000 0.999999
vt 0.000000 0.000000
vt 0.111111 0.000000
vt 0.111111 0.999999
vt 0.001303 0.999999
vt 0.001302 0.000000
vt 0.112413 0.000000
vt 0.112414 0.999999
vt 0.888889 0.000000
vt 1.000000 0.000000
vt 1.000000 0.111111
vt 0.888889 0.111111
vt 1.000000 0.333333
vt 0.888889 0.333333
vt 0.888889 0.222222
vt 1.000000 0.222222
vt 0.443679 0.826951
vt 0.556023 0.826951
vt 0.556023 0.855037
vt 0.443679 0.855037
vt 0.444035 0.826758
vt 0.556379 0.826758
vt 0.556379 0.854844
vt 0.444035 0.854844
vt 0.443931 0.826229
vt 0.556276 0.826229
vt 0.556276 0.854315
vt 0.443931 0.854315
vt 0.444149 0.826211
vt 0.556493 0.826211
vt 0.556493 0.854298
vt 0.444149 0.854298
vt 0.445465 0.826650
vt 0.557810 0.826650
vt 0.557810 0.854736
vt 0.445465 0.854736
vt 0.443931 0.827113
vt 0.556276 0.827113
vt 0.556276 0.855199
vt 0.443931 0.855199
vt 0.419706 0.419706
vt 0.250000 0.490000
vt 0.080294 0.419706
vt 0.010000 0.250000
vt 0.080294 0.080294
vt 0.250000 0.010000
vt 0.419706 0.080294
vt 0.490000 0.250000
vt 0.444149 0.827967
vt 0.556493 0.827967
vt 0.556493 0.856053
vt 0.444149 0.856053
vt 0.444149 0.825773
vt 0.556493 0.825773
vt 0.556493 0.853859
vt 0.444149 0.853859
vt 0.554034 0.840936
vt 0.538240 0.802805
vt 0.500109 0.787011
vt 0.461978 0.802805
vt 0.446184 0.840936
vt 0.461978 0.879067
vt 0.500109 0.894861
vt 0.538240 0.879067
vt 0.554688 0.277344
vt 0.554688 0.777344
vt 0.429688 0.777344
vt 0.429688 0.277344
vt 0.552734 0.238281
vt 0.552734 0.738281
vt 0.427734 0.738281
vt 0.427734 0.238281
vt 0.529297 0.203125
vt 0.529297 0.703125
vt 0.404297 0.703125
vt 0.404297 0.203125
vt 0.537109 0.199219
vt 0.537109 0.699219
vt 0.412109 0.699219
vt 0.412109 0.199219
vt 0.550781 0.250000
vt 0.550781 0.750000
vt 0.425781 0.750000
vt 0.425781 0.250000
vt 0.583984 0.218750
vt 0.583984 0.718750
vt 0.458984 0.718750
vt 0.458984 0.218750
vt 0.656034 0.654081
vt 0.486328 0.724375
vt 0.316622 0.654081
vt 0.246328 0.484375
vt 0.316622 0.314669
vt 0.486328 0.244375
vt 0.656034 0.314669
vt 0.726328 0.484375
vt 0.593750 0.240234
vt 0.593750 0.740234
vt 0.468750 0.740234
vt 0.468750 0.240234
vt 0.535156 0.240234
vt 0.535156 0.740234
vt 0.410156 0.740234
vt 0.410156 0.240234
vt 0.494141 0.724375
vt 0.663846 0.654081
vt 0.734141 0.484375
vt 0.663846 0.314669
vt 0.494141 0.244375
vt 0.324435 0.314669
vt 0.254141 0.484375
vt 0.324435 0.654081
vn -1.0000 0.0000 0.0000
vn 0.0000 0.0000 -1.0000
vn 1.0000 0.0000 0.0000
vn 0.0000 0.0000 1.0000
vn 0.0000 -1.0000 0.0000
vn 0.0000 1.0000 0.0000
vn 0.3810 -0.0936 -0.9198
vn 0.9198 -0.0936 -0.3810
vn 0.9198 -0.0936 0.3810
vn 0.3810 -0.0936 0.9198
vn -0.3810 -0.0936 0.9198
vn -0.9198 -0.0936 0.3810
vn -0.9198 -0.0936 -0.3810
vn -0.3810 -0.0936 -0.9198
vn 0.0000 -0.7071 -0.7071
vn 0.0000 -0.7071 0.7071
vn 0.0000 0.7071 0.7071
vn 0.0000 0.7071 -0.7071
usemtl None
s off
f 1/1/1 2/2/1 4/3/1 3/4/1
f 3/5/2 4/6/2 8/7/2 7/8/2
f 7/9/3 8/10/3 6/11/3 5/12/3
f 5/13/4 6/14/4 2/15/4 1/16/4
f 3/17/5 7/18/5 5/19/5 1/20/5
f 8/21/6 4/22/6 2/23/6 6/24/6
f 9/25/1 10/26/1 12/27/1 11/28/1
f 11/29/2 12/30/2 16/31/2 15/32/2
f 15/33/3 16/34/3 14/35/3 13/36/3
f 13/37/4 14/38/4 10/39/4 9/40/4
f 11/41/5 15/42/5 13/43/5 9/44/5
f 16/45/6 12/46/6 10/47/6 14/48/6
f 17/49/1 18/50/1 20/51/1 19/52/1
f 19/53/6 20/54/6 24/55/6 23/56/6
f 23/57/3 24/58/3 22/59/3 21/60/3
f 21/61/5 22/62/5 18/63/5 17/64/5
f 19/65/2 23/66/2 21/67/2 17/68/2
f 24/69/4 20/70/4 18/71/4 22/72/4
f 25/73/7 26/74/7 28/75/7 27/76/7
f 27/77/8 28/78/8 30/79/8 29/80/8
f 29/81/9 30/82/9 32/83/9 31/84/9
f 31/85/10 32/86/10 34/87/10 33/88/10
f 33/89/11 34/90/11 36/91/11 35/92/11
f 35/93/12 36/94/12 38/95/12 37/96/12
f 28/97/6 26/98/6 40/99/6 38/100/6 36/101/6 34/102/6 32/103/6 30/104/6
f 37/105/13 38/106/13 40/107/13 39/108/13
f 39/109/14 40/110/14 26/111/14 25/112/14
f 25/113/5 27/114/5 29/115/5 31/116/5 33/117/5 35/118/5 37/119/5 39/120/5
f 41/121/2 42/122/2 44/123/2 43/124/2
f 43/125/15 44/126/15 46/127/15 45/128/15
f 45/129/5 46/130/5 48/131/5 47/132/5
f 47/133/16 48/134/16 50/135/16 49/136/16
f 49/137/4 50/138/4 52/139/4 51/140/4
f 51/141/17 52/142/17 54/143/17 53/144/17
f 44/145/3 42/146/3 56/147/3 54/148/3 52/149/3 50/150/3 48/151/3 46/152/3
f 53/153/6 54/154/6 56/155/6 55/156/6
f 55/157/18 56/158/18 42/159/18 41/160/18
f 41/161/1 43/162/1 45/163/1 47/164/1 49/165/1 51/166/1 53/167/1 55/168/1
