# Blender v2.82 (sub 7) OBJ File: ''
# www.blender.org
mtllib mex_chariot.mtl
o Cube_Cube.001
v -1.500000 -0.500000 1.500000
v -1.500000 2.500000 1.500000
v -1.500000 -0.500000 -1.500000
v -1.500000 2.500000 -1.500000
v 1.500000 -0.500000 1.500000
v 1.500000 2.500000 1.500000
v 1.500000 -0.500000 -1.500000
v 1.500000 2.500000 -1.500000
v -1.500000 -0.250000 1.250000
v -1.500000 2.250000 1.250000
v -1.500000 2.250000 -1.250000
v -1.500000 -0.250000 -1.250000
v -1.250000 -0.250000 -1.500000
v -1.250000 2.250000 -1.500000
v 1.250000 2.250000 -1.500000
v 1.250000 -0.250000 -1.500000
v 1.500000 -0.250000 -1.250000
v 1.500000 2.250000 -1.250000
v 1.500000 2.250000 1.250000
v 1.500000 -0.250000 1.250000
v 1.250000 -0.250000 1.500000
v 1.250000 2.250000 1.500000
v -1.250000 2.250000 1.500000
v -1.250000 -0.250000 1.500000
v -1.250000 -0.500000 -1.250000
v 1.250000 -0.500000 -1.250000
v 1.250000 -0.500000 1.250000
v -1.250000 -0.500000 1.250000
v 1.250000 2.500000 -1.250000
v -1.250000 2.500000 -1.250000
v -1.250000 2.500000 1.250000
v 1.250000 2.500000 1.250000
v -1.500000 -0.250000 1.250000
v -1.500000 2.250000 1.250000
v -1.500000 -0.250000 -1.250000
v -1.500000 2.250000 -1.250000
v -1.250000 2.250000 -1.500000
v -1.250000 -0.250000 -1.500000
v 1.250000 -0.250000 -1.500000
v 1.250000 2.250000 -1.500000
v 1.500000 2.250000 -1.250000
v 1.500000 -0.250000 -1.250000
v 1.500000 -0.250000 1.250000
v 1.500000 2.250000 1.250000
v 1.250000 2.250000 1.500000
v 1.250000 -0.250000 1.500000
v -1.250000 -0.250000 1.500000
v -1.250000 2.250000 1.500000
v 1.250000 -0.500000 -1.250000
v -1.250000 -0.500000 -1.250000
v -1.250000 -0.500000 1.250000
v 1.250000 -0.500000 1.250000
v -1.250000 2.500000 -1.250000
v 1.250000 2.500000 -1.250000
v 1.250000 2.500000 1.250000
v -1.250000 2.500000 1.250000
v -1.050000 0.100000 0.900000
v -1.050000 1.900000 0.900000
v -1.050000 1.900000 -0.900000
v -1.050000 0.100000 -0.900000
v -0.900000 0.100000 -1.050000
v -0.900000 1.900000 -1.050000
v 0.900000 1.900000 -1.050000
v 0.900000 0.100000 -1.050000
v 1.050000 0.100000 -0.900000
v 1.050000 1.900000 -0.900000
v 1.050000 1.900000 0.900000
v 1.050000 0.100000 0.900000
v 0.900000 0.100000 1.050000
v 0.900000 1.900000 1.050000
v -0.900000 1.900000 1.050000
v -0.900000 0.100000 1.050000
v -0.900000 -0.050000 -0.900000
v 0.900000 -0.050000 -0.900000
v 0.900000 -0.050000 0.900000
v -0.900000 -0.050000 0.900000
v 0.900000 2.050000 -0.900000
v -0.900000 2.050000 -0.900000
v -0.900000 2.050000 0.900000
v 0.900000 2.050000 0.900000
v -1.050000 2.250000 1.250000
v -1.050000 -0.250000 1.250000
v -1.050000 2.250000 -1.250000
v -1.050000 -0.250000 -1.250000
v -1.250000 2.250000 -1.050000
v -1.250000 -0.250000 -1.050000
v 1.250000 2.250000 -1.050000
v 1.250000 -0.250000 -1.050000
v 1.050000 2.250000 -1.250000
v 1.050000 -0.250000 -1.250000
v 1.050000 2.250000 1.250000
v 1.050000 -0.250000 1.250000
v 1.250000 2.250000 1.050000
v 1.250000 -0.250000 1.050000
v -1.250000 2.250000 1.050000
v -1.250000 -0.250000 1.050000
v 1.250000 -0.050000 -1.250000
v -1.250000 -0.050000 -1.250000
v 1.250000 -0.050000 1.250000
v -1.250000 -0.050000 1.250000
v -1.250000 2.050000 -1.250000
v 1.250000 2.050000 -1.250000
v -1.250000 2.050000 1.250000
v 1.250000 2.050000 1.250000
v -1.500000 0.100000 0.900000
v -1.500000 1.900000 0.900000
v -1.500000 1.900000 -0.900000
v -1.500000 0.100000 -0.900000
v -0.900000 0.100000 -1.500000
v -0.900000 1.900000 -1.500000
v 0.900000 1.900000 -1.500000
v 0.900000 0.100000 -1.500000
v 1.500000 0.100000 -0.900000
v 1.500000 1.900000 -0.900000
v 1.500000 1.900000 0.900000
v 1.500000 0.100000 0.900000
v 0.900000 0.100000 1.500000
v 0.900000 1.900000 1.500000
v -0.900000 1.900000 1.500000
v -0.900000 0.100000 1.500000
v -0.900000 -0.500000 -0.900000
v 0.900000 -0.500000 -0.900000
v 0.900000 -0.500000 0.900000
v -0.900000 -0.500000 0.900000
v 0.900000 2.500000 -0.900000
v -0.900000 2.500000 -0.900000
v -0.900000 2.500000 0.900000
v 0.900000 2.500000 0.900000
vt 1.000000 0.083333
vt 1.000000 0.916667
vt 1.000000 0.916667
vt 1.000000 0.083333
vt 0.000000 0.083333
vt 0.000000 0.916667
vt 0.000000 0.916667
vt 0.000000 0.083333
vt 0.916667 0.000000
vt 0.916667 0.000000
vt 0.916667 0.000000
vt 0.916667 0.000000
vt 0.916667 1.000000
vt 0.083333 1.000000
vt 0.083333 1.000000
vt 0.916667 1.000000
vt 1.000000 0.916667
vt 1.000000 0.916667
vt 0.000000 0.916667
vt 0.000000 0.083333
vt 0.000000 0.083333
vt 0.000000 0.916667
vt 0.000000 0.000000
vt 0.000000 1.000000
vt 0.083333 0.916667
vt 0.083333 0.083333
vt 1.000000 1.000000
vt 0.916667 0.916667
vt 1.000000 0.000000
vt 0.916667 0.083333
vt 0.000000 0.000000
vt 0.000000 1.000000
vt 0.083333 0.916667
vt 0.083333 0.083333
vt 1.000000 1.000000
vt 0.916667 0.916667
vt 1.000000 0.000000
vt 0.916667 0.083333
vt 0.916667 0.916667
vt 0.916667 0.083333
vt 0.000000 1.000000
vt 0.083333 0.916667
vt 0.000000 0.000000
vt 0.083333 0.083333
vt 1.000000 0.000000
vt 1.000000 1.000000
vt 0.916667 0.916667
vt 0.916667 0.083333
vt 0.083333 0.916667
vt 0.083333 0.083333
vt 0.000000 1.000000
vt 1.000000 1.000000
vt 0.916667 0.916667
vt 0.083333 0.916667
vt 0.916667 0.083333
vt 0.083333 0.083333
vt 0.083333 0.916667
vt 0.916667 0.916667
vt 0.000000 0.000000
vt 0.083333 0.083333
vt 1.000000 0.000000
vt 0.916667 0.083333
vt 0.916667 0.916667
vt 0.083333 0.916667
vt 0.083333 1.000000
vt 0.916667 1.000000
vt 0.916667 1.000000
vt 0.083333 1.000000
vt 0.083333 0.000000
vt 0.083333 0.000000
vt 0.083333 0.916667
vt 0.916667 0.916667
vt 1.000000 0.083333
vt 1.000000 0.083333
vt 0.083333 0.083333
vt 0.083333 0.000000
vt 0.083333 0.000000
vt 0.916667 0.083333
vt 0.916667 0.083333
vt 0.083333 0.083333
vt 0.000000 0.916667
vt 0.150000 0.916667
vt 0.150000 0.083333
vt 0.150000 0.916667
vt 0.150000 0.083333
vt 0.000000 0.083333
vt 0.150000 0.083333
vt 0.150000 0.916667
vt 1.000000 0.916667
vt 0.850000 0.916667
vt 0.850000 0.083333
vt 1.000000 0.083333
vt 0.916667 0.850000
vt 0.083333 0.850000
vt 1.000000 0.083333
vt 0.850000 0.083333
vt 0.850000 0.916667
vt 1.000000 0.916667
vt 0.083333 0.850000
vt 0.916667 0.850000
vt 0.850000 0.916667
vt 0.850000 0.083333
vt 1.000000 0.083333
vt 0.850000 0.083333
vt 0.850000 0.083333
vt 0.850000 0.916667
vt 1.000000 0.916667
vt 0.850000 0.916667
vt 0.000000 0.916667
vt 0.150000 0.916667
vt 0.150000 0.083333
vt 0.000000 0.083333
vt 0.083333 0.150000
vt 0.916667 0.150000
vt 0.000000 0.083333
vt 0.150000 0.083333
vt 0.150000 0.916667
vt 0.000000 0.916667
vt 0.916667 0.150000
vt 0.083333 0.150000
vt 0.916667 0.000000
vt 0.916667 0.150000
vt 0.083333 0.150000
vt 0.083333 0.000000
vt 0.083333 0.000000
vt 0.083333 0.150000
vt 0.083333 0.000000
vt 0.083333 0.150000
vt 0.916667 0.150000
vt 0.916667 0.000000
vt 0.916667 0.000000
vt 0.916667 0.150000
vt 0.083333 1.000000
vt 0.083333 0.850000
vt 0.916667 0.850000
vt 0.916667 1.000000
vt 0.083333 1.000000
vt 0.083333 0.850000
vt 0.916667 0.850000
vt 0.916667 1.000000
vt 0.916667 1.000000
vt 0.916667 0.850000
vt 0.083333 0.850000
vt 0.083333 1.000000
vt 0.200000 0.800000
vt 0.200000 0.200000
vt 0.083333 0.083333
vt 0.083333 0.916667
vt 0.800000 0.800000
vt 0.916667 0.916667
vt 0.800000 0.200000
vt 0.916667 0.083333
vt 0.200000 0.800000
vt 0.200000 0.200000
vt 0.083333 0.083333
vt 0.083333 0.916667
vt 0.800000 0.800000
vt 0.916667 0.916667
vt 0.800000 0.200000
vt 0.916667 0.083333
vt 0.800000 0.800000
vt 0.800000 0.200000
vt 0.916667 0.083333
vt 0.916667 0.916667
vt 0.200000 0.800000
vt 0.083333 0.916667
vt 0.200000 0.200000
vt 0.083333 0.083333
vt 0.800000 0.800000
vt 0.800000 0.200000
vt 0.916667 0.083333
vt 0.916667 0.916667
vt 0.200000 0.800000
vt 0.083333 0.916667
vt 0.200000 0.200000
vt 0.083333 0.083333
vt 0.800000 0.800000
vt 0.200000 0.800000
vt 0.083333 0.916667
vt 0.916667 0.916667
vt 0.800000 0.200000
vt 0.916667 0.083333
vt 0.200000 0.200000
vt 0.083333 0.083333
vt 0.200000 0.800000
vt 0.800000 0.800000
vt 0.916667 0.916667
vt 0.083333 0.916667
vt 0.200000 0.200000
vt 0.083333 0.083333
vt 0.800000 0.200000
vt 0.916667 0.083333
vt 0.200000 0.200000
vt 0.200000 0.800000
vt 0.800000 0.800000
vt 0.800000 0.200000
vt 0.150000 0.800000
vt 0.000000 0.800000
vt 0.000000 0.200000
vt 0.150000 0.200000
vt 0.150000 0.800000
vt 0.000000 0.800000
vt 0.000000 0.200000
vt 0.150000 0.200000
vt 0.150000 0.200000
vt 0.000000 0.200000
vt 0.000000 0.800000
vt 0.150000 0.800000
vt 0.200000 0.200000
vt 0.200000 0.800000
vt 0.800000 0.800000
vt 0.800000 0.200000
vt 0.850000 0.800000
vt 1.000000 0.800000
vt 1.000000 0.200000
vt 0.850000 0.200000
vt 0.800000 0.850000
vt 0.800000 1.000000
vt 0.200000 1.000000
vt 0.200000 0.850000
vt 0.850000 0.200000
vt 1.000000 0.200000
vt 1.000000 0.800000
vt 0.850000 0.800000
vt 0.200000 0.850000
vt 0.200000 1.000000
vt 0.800000 1.000000
vt 0.800000 0.850000
vt 0.800000 0.200000
vt 0.800000 0.800000
vt 0.200000 0.800000
vt 0.200000 0.200000
vt 0.850000 0.800000
vt 1.000000 0.800000
vt 1.000000 0.200000
vt 0.850000 0.200000
vt 0.850000 0.200000
vt 1.000000 0.200000
vt 0.850000 0.200000
vt 1.000000 0.200000
vt 1.000000 0.800000
vt 0.850000 0.800000
vt 0.850000 0.800000
vt 1.000000 0.800000
vt 0.800000 0.200000
vt 0.800000 0.800000
vt 0.200000 0.800000
vt 0.200000 0.200000
vt 0.150000 0.800000
vt 0.000000 0.800000
vt 0.000000 0.200000
vt 0.150000 0.200000
vt 0.200000 0.150000
vt 0.200000 0.000000
vt 0.800000 0.000000
vt 0.800000 0.150000
vt 0.150000 0.200000
vt 0.000000 0.200000
vt 0.000000 0.800000
vt 0.150000 0.800000
vt 0.800000 0.150000
vt 0.800000 0.000000
vt 0.200000 0.000000
vt 0.200000 0.150000
vt 0.200000 0.800000
vt 0.800000 0.800000
vt 0.800000 0.200000
vt 0.200000 0.200000
vt 0.800000 0.150000
vt 0.800000 0.000000
vt 0.200000 0.000000
vt 0.200000 0.150000
vt 0.200000 0.150000
vt 0.200000 0.000000
vt 0.200000 0.150000
vt 0.200000 0.000000
vt 0.800000 0.000000
vt 0.800000 0.150000
vt 0.800000 0.150000
vt 0.800000 0.000000
vt 0.800000 0.800000
vt 0.200000 0.800000
vt 0.200000 0.200000
vt 0.800000 0.200000
vt 0.200000 0.850000
vt 0.200000 1.000000
vt 0.800000 1.000000
vt 0.800000 0.850000
vt 0.200000 0.850000
vt 0.200000 1.000000
vt 0.800000 1.000000
vt 0.800000 0.850000
vt 0.800000 0.850000
vt 0.800000 1.000000
vt 0.200000 1.000000
vt 0.200000 0.850000
vn 0.0000 0.0000 1.0000
vn -1.0000 0.0000 0.0000
vn 0.0000 0.0000 -1.0000
vn 1.0000 0.0000 0.0000
vn 0.0000 -1.0000 0.0000
vn 0.0000 1.0000 0.0000
usemtl None
s off
f 20/1/1 17/2/1 42/3/1 43/4/1
f 10/5/1 11/6/1 36/7/1 34/8/1
f 21/9/1 22/10/1 45/11/1 46/12/1
f 16/13/1 13/14/1 38/15/1 39/16/1
f 17/2/1 18/17/1 41/18/1 42/3/1
f 12/19/1 9/20/1 33/21/1 35/22/1
f 1/23/2 2/24/2 10/25/2 9/26/2
f 2/24/2 4/27/2 11/28/2 10/25/2
f 4/27/2 3/29/2 12/30/2 11/28/2
f 3/29/2 1/23/2 9/26/2 12/30/2
f 3/31/3 4/32/3 14/33/3 13/34/3
f 4/32/3 8/35/3 15/36/3 14/33/3
f 8/35/3 7/37/3 16/38/3 15/36/3
f 7/37/3 3/31/3 13/34/3 16/38/3
f 7/37/4 8/35/4 18/39/4 17/40/4
f 8/35/4 6/41/4 19/42/4 18/39/4
f 6/41/4 5/43/4 20/44/4 19/42/4
f 5/43/4 7/37/4 17/40/4 20/44/4
f 5/45/1 6/46/1 22/47/1 21/48/1
f 6/46/1 2/24/1 23/49/1 22/47/1
f 2/24/1 1/23/1 24/50/1 23/49/1
f 1/23/1 5/45/1 21/48/1 24/50/1
f 3/51/5 7/52/5 26/53/5 25/54/5
f 7/52/5 5/45/5 27/55/5 26/53/5
f 5/45/5 1/23/5 28/56/5 27/55/5
f 1/23/5 3/51/5 25/54/5 28/56/5
f 8/35/6 4/32/6 30/57/6 29/58/6
f 4/32/6 2/59/6 31/60/6 30/57/6
f 2/59/6 6/61/6 32/62/6 31/60/6
f 6/61/6 8/35/6 29/58/6 32/62/6
f 25/54/1 26/53/1 49/63/1 50/64/1
f 14/65/1 15/66/1 40/67/1 37/68/1
f 24/69/1 21/9/1 46/12/1 47/70/1
f 29/58/1 30/57/1 53/71/1 54/72/1
f 11/6/1 12/19/1 35/22/1 36/7/1
f 18/17/1 19/73/1 44/74/1 41/18/1
f 28/56/1 25/54/1 50/64/1 51/75/1
f 15/66/1 16/13/1 39/16/1 40/67/1
f 22/10/1 23/76/1 48/77/1 45/11/1
f 32/62/1 29/58/1 54/72/1 55/78/1
f 19/73/1 20/1/1 43/4/1 44/74/1
f 26/53/1 27/55/1 52/79/1 49/63/1
f 23/76/1 24/69/1 47/70/1 48/77/1
f 30/57/1 31/60/1 56/80/1 53/71/1
f 27/55/1 28/56/1 51/75/1 52/79/1
f 31/60/1 32/62/1 55/78/1 56/80/1
f 9/20/1 10/5/1 34/8/1 33/21/1
f 13/14/1 14/65/1 37/68/1 38/15/1
f 34/81/3 81/82/3 82/83/3 33/21/3
f 36/7/5 83/84/5 81/85/5 34/8/5
f 35/86/1 84/87/1 83/84/1 36/7/1
f 33/21/6 82/83/6 84/88/6 35/22/6
f 37/89/4 85/90/4 86/91/4 38/92/4
f 40/67/5 87/93/5 85/94/5 37/68/5
f 39/95/2 88/96/2 87/97/2 40/98/2
f 38/15/6 86/99/6 88/100/6 39/16/6
f 41/18/1 89/101/1 90/102/1 42/103/1
f 44/74/5 91/104/5 89/101/5 41/18/5
f 43/4/3 92/105/3 91/106/3 44/107/3
f 42/3/6 90/108/6 92/105/6 43/4/6
f 45/109/2 93/110/2 94/111/2 46/112/2
f 48/77/5 95/113/5 93/114/5 45/11/5
f 47/115/4 96/116/4 95/117/4 48/118/4
f 46/12/6 94/119/6 96/120/6 47/70/6
f 49/121/1 97/122/1 98/123/1 50/124/1
f 52/125/2 99/126/2 97/122/2 49/121/2
f 51/127/3 100/128/3 99/129/3 52/130/3
f 50/131/4 98/132/4 100/128/4 51/127/4
f 53/133/1 101/134/1 102/135/1 54/136/1
f 56/137/4 103/138/4 101/139/4 53/140/4
f 55/141/3 104/142/3 103/138/3 56/137/3
f 54/136/2 102/135/2 104/143/2 55/144/2
f 58/145/2 57/146/2 82/147/2 81/148/2
f 59/149/2 58/145/2 81/148/2 83/150/2
f 60/151/2 59/149/2 83/150/2 84/152/2
f 57/146/2 60/151/2 84/152/2 82/147/2
f 62/153/3 61/154/3 86/155/3 85/156/3
f 63/157/3 62/153/3 85/156/3 87/158/3
f 64/159/3 63/157/3 87/158/3 88/160/3
f 61/154/3 64/159/3 88/160/3 86/155/3
f 66/161/4 65/162/4 90/163/4 89/164/4
f 67/165/4 66/161/4 89/164/4 91/166/4
f 68/167/4 67/165/4 91/166/4 92/168/4
f 65/162/4 68/167/4 92/168/4 90/163/4
f 70/169/1 69/170/1 94/171/1 93/172/1
f 71/173/1 70/169/1 93/172/1 95/174/1
f 72/175/1 71/173/1 95/174/1 96/176/1
f 69/170/1 72/175/1 96/176/1 94/171/1
f 74/177/5 73/178/5 98/179/5 97/180/5
f 75/181/5 74/177/5 97/180/5 99/182/5
f 76/183/5 75/181/5 99/182/5 100/184/5
f 73/178/5 76/183/5 100/184/5 98/179/5
f 78/185/6 77/186/6 102/187/6 101/188/6
f 79/189/6 78/185/6 101/188/6 103/190/6
f 80/191/6 79/189/6 103/190/6 104/192/6
f 77/186/6 80/191/6 104/192/6 102/187/6
f 105/193/2 106/194/2 107/195/2 108/196/2
f 58/197/1 106/198/1 105/199/1 57/200/1
f 59/201/6 107/202/6 106/203/6 58/204/6
f 60/205/3 108/206/3 107/202/3 59/201/3
f 57/200/5 105/199/5 108/207/5 60/208/5
f 109/209/3 110/210/3 111/211/3 112/212/3
f 62/213/2 110/214/2 109/215/2 61/216/2
f 63/217/6 111/218/6 110/219/6 62/220/6
f 64/221/4 112/222/4 111/223/4 63/224/4
f 61/225/5 109/226/5 112/227/5 64/228/5
f 113/229/4 114/230/4 115/231/4 116/232/4
f 66/233/3 114/234/3 113/235/3 65/236/3
f 67/237/6 115/238/6 114/234/6 66/233/6
f 68/239/1 116/240/1 115/241/1 67/242/1
f 65/243/5 113/244/5 116/240/5 68/239/5
f 117/245/1 118/246/1 119/247/1 120/248/1
f 70/249/4 118/250/4 117/251/4 69/252/4
f 71/253/6 119/254/6 118/255/6 70/256/6
f 72/257/2 120/258/2 119/259/2 71/260/2
f 69/261/5 117/262/5 120/263/5 72/264/5
f 121/265/5 122/266/5 123/267/5 124/268/5
f 74/269/3 122/270/3 121/271/3 73/272/3
f 75/273/4 123/274/4 122/270/4 74/269/4
f 76/275/1 124/276/1 123/277/1 75/278/1
f 73/279/2 121/280/2 124/276/2 76/275/2
f 125/281/6 126/282/6 127/283/6 128/284/6
f 78/285/3 126/286/3 125/287/3 77/288/3
f 79/289/2 127/290/2 126/291/2 78/292/2
f 80/293/1 128/294/1 127/290/1 79/289/1
f 77/288/4 125/287/4 128/295/4 80/296/4
