# Blender v2.82 (sub 7) OBJ File: ''
# www.blender.org
mtllib mex_chariot_control_center.mtl
o Cylinder
v 0.000000 -0.550000 -1.000000
v -0.282755 -0.450000 -0.663367
v 0.866025 -0.550000 -0.500000
v 0.718705 -0.450000 -0.073886
v 0.866025 -0.550000 0.500000
v 0.718705 -0.450000 0.073886
v -0.000000 -0.550000 1.000000
v -0.306847 -0.450000 0.665107
v -0.866025 -0.550000 0.500000
v -0.419634 -0.450000 0.599726
v -0.866025 -0.550000 -0.500000
v -0.379179 -0.450000 -0.608643
v 0.801393 -0.450000 -0.088261
v -0.286534 -0.450000 -0.758772
v 0.801393 -0.450000 0.088261
v -0.306847 -0.450000 0.760588
v -0.502322 -0.450000 0.647467
v -0.463693 -0.450000 -0.653073
v 0.866025 -0.450000 0.500000
v 0.866025 -0.450000 -0.500000
v -0.866025 -0.450000 0.500000
v -0.000000 -0.450000 1.000000
v 0.000000 -0.450000 -1.000000
v -0.866025 -0.450000 -0.500000
v 0.654073 -0.450000 0.377629
v 0.654073 -0.450000 -0.377629
v -0.654073 -0.450000 0.377629
v -0.000000 -0.450000 0.755259
v 0.000000 -0.450000 -0.755259
v -0.654073 -0.450000 -0.377629
v 0.801393 1.350000 0.088261
v 0.801393 1.350000 -0.088261
v -0.502322 1.350000 0.647467
v -0.306847 1.350000 0.760588
v -0.286534 1.350000 -0.758772
v -0.463693 1.350000 -0.653073
v 0.718705 1.350000 0.073886
v 0.718705 1.350000 -0.073886
v -0.419634 1.350000 0.599726
v -0.306847 1.350000 0.665107
v -0.282755 1.350000 -0.663367
v -0.379179 1.350000 -0.608643
vt 0.470054 0.786634
vt 0.451778 0.754979
vt 0.177637 0.913254
vt 0.195913 0.944909
vt 0.310592 0.878699
vt 0.292316 0.847044
vt 0.608866 0.664284
vt 0.627142 0.695939
vt 0.195913 0.944909
vt 0.177637 0.913254
vt 0.451778 0.754979
vt 0.470054 0.786634
vt 0.725918 0.596703
vt 0.744195 0.628358
vt 0.099817 0.623520
vt 0.237849 0.384443
vt 0.513912 0.384443
vt 0.651943 0.623520
vt 0.513912 0.862598
vt 0.237849 0.862598
vt 0.627142 0.695939
vt 0.608866 0.664284
vt 0.292316 0.847044
vt 0.310592 0.878699
vt 0.744195 0.628358
vt 0.725918 0.596703
vt 0.193120 0.306970
vt 0.010359 0.623520
vt 0.193120 0.940071
vt 0.558641 0.940071
vt 0.741401 0.623520
vt 0.558641 0.306970
vt 0.010359 0.623520
vt 0.193120 0.306970
vt 0.877884 0.270297
vt 0.944018 0.270297
vt 0.944018 0.998052
vt 0.877884 0.998052
vt 0.558641 0.940071
vt 0.193120 0.940071
vt 0.852975 0.257577
vt 0.919161 0.257577
vt 0.919161 0.985331
vt 0.852975 0.985331
vt 0.558641 0.306970
vt 0.741401 0.623520
vt 0.944312 0.261788
vt 0.885190 0.266030
vt 0.885190 0.993784
vt 0.944312 0.989543
vt 0.106068 0.742044
vt 0.138329 0.797922
vt 0.612018 0.808205
vt 0.653222 0.736672
vt 0.403306 0.332045
vt 0.327909 0.330963
vt 0.161877 0.778260
vt 0.134870 0.731482
vt 0.618322 0.736671
vt 0.594568 0.777981
vt 0.344149 0.361855
vt 0.384674 0.361555
vt 0.857225 0.536691
vt 0.857225 0.462804
vt 0.898569 0.455617
vt 0.898569 0.543878
vt 0.344449 0.167194
vt 0.288056 0.199884
vt 0.246712 0.176014
vt 0.344449 0.119454
vt 0.308283 0.804069
vt 0.356495 0.831431
vt 0.354606 0.879134
vt 0.266026 0.826284
vt 0.944477 0.267346
vt 0.842042 0.267346
vt 0.842042 0.995101
vt 0.944477 0.995101
vt 0.944564 0.264145
vt 0.887245 0.264145
vt 0.887245 0.991899
vt 0.944564 0.991899
vt 0.822887 0.259148
vt 0.945251 0.259148
vt 0.945251 0.986902
vt 0.822887 0.986902
vt 0.929445 0.272317
vt 0.872126 0.272317
vt 0.872126 1.000072
vt 0.929445 1.000072
vt 0.930231 0.261788
vt 0.930231 0.989543
vt 0.922111 0.268050
vt 0.922111 0.995804
vt 0.930231 0.261788
vt 0.930231 0.989543
vt 0.872126 0.272317
vt 0.929445 0.272317
vt 0.929445 1.000072
vt 0.872126 1.000072
vt 0.925269 0.263808
vt 0.925269 0.991563
vn 0.5000 0.0000 -0.8660
vn 1.0000 0.0000 0.0000
vn 0.5000 0.0000 0.8660
vn -0.5000 0.0000 0.8660
vn 0.0000 1.0000 -0.0000
vn -1.0000 0.0000 0.0000
vn -0.5000 0.0000 -0.8660
vn 0.0000 -1.0000 -0.0000
vn 0.9992 0.0000 -0.0396
vn -0.5124 0.0000 -0.8588
vn -0.1713 0.0000 -0.9852
vn 0.5015 0.0000 -0.8651
vn -0.4653 0.0000 0.8851
vn -0.5009 0.0000 0.8655
vn -0.1713 0.0000 0.9852
vn 0.4936 0.0000 0.8697
usemtl None
s off
f 1/1/1 23/2/1 20/3/1 3/4/1
f 3/5/2 20/6/2 19/7/2 5/8/2
f 5/9/3 19/10/3 22/11/3 7/12/3
f 7/12/4 22/11/4 21/13/4 9/14/4
f 26/15/5 29/16/5 30/17/5 27/18/5 28/19/5 25/20/5
f 9/21/6 21/22/6 24/23/6 11/24/6
f 11/25/7 24/26/7 23/2/7 1/1/7
f 1/27/8 3/28/8 5/29/8 7/30/8 9/31/8 11/32/8
f 29/16/5 26/15/5 20/33/5 23/34/5
f 2/35/9 14/36/9 35/37/9 41/38/9
f 25/20/5 28/19/5 22/39/5 19/40/5
f 16/41/2 8/42/2 40/43/2 34/44/2
f 27/18/5 30/17/5 24/45/5 21/46/5
f 14/47/10 18/48/10 36/49/10 35/50/10
f 13/51/5 15/52/5 19/40/5 20/33/5
f 16/53/5 17/54/5 21/46/5 22/39/5
f 18/55/5 14/56/5 23/34/5 24/45/5
f 6/57/5 4/58/5 26/15/5 25/20/5
f 10/59/5 8/60/5 28/19/5 27/18/5
f 2/61/5 12/62/5 30/17/5 29/16/5
f 14/56/5 2/61/5 29/16/5 23/34/5
f 4/58/5 13/51/5 20/33/5 26/15/5
f 15/52/5 6/57/5 25/20/5 19/40/5
f 8/60/5 16/53/5 22/39/5 28/19/5
f 17/54/5 10/59/5 27/18/5 21/46/5
f 12/62/5 18/55/5 24/45/5 30/17/5
f 38/63/5 37/64/5 31/65/5 32/66/5
f 40/67/5 39/68/5 33/69/5 34/70/5
f 42/71/5 41/72/5 35/73/5 36/74/5
f 4/75/6 6/76/6 37/77/6 38/78/6
f 10/79/7 17/80/7 33/81/7 39/82/7
f 15/83/2 13/84/2 32/85/2 31/86/2
f 13/87/11 4/88/11 38/89/11 32/90/11
f 8/91/12 10/79/12 39/82/12 40/92/12
f 18/48/13 12/93/13 42/94/13 36/49/13
f 17/80/14 16/95/14 34/96/14 33/81/14
f 6/97/15 15/98/15 31/99/15 37/100/15
f 12/93/16 2/101/16 41/102/16 42/94/16
