# Blender v2.83.5 OBJ File: ''
# www.blender.org
mtllib fun_altars_altar.mtl
o Cube_Cube.001
v -0.349224 -0.511259 0.349224
v -0.349224 0.571146 0.349224
v -0.349224 0.571146 -0.349224
v -0.349224 -0.511259 -0.349224
v -0.307834 0.393340 -0.349224
v -0.307834 0.518644 -0.349224
v -0.300675 0.518644 -0.349224
v -0.300675 0.393340 -0.349224
v 0.349224 -0.511259 -0.349224
v 0.349224 0.571146 -0.349224
v 0.349224 0.571146 0.349224
v 0.349224 -0.511259 0.349224
v 0.010040 -0.088784 0.349224
v 0.010040 -0.063328 0.349224
v -0.010040 -0.063328 0.349224
v -0.010040 -0.088784 0.349224
v 0.349224 0.576745 -0.349224
v 0.349224 0.695198 0.349224
v 0.155326 0.631276 -0.061626
v -0.155326 0.631276 -0.061626
v -0.133821 0.604609 -0.033197
v 0.133821 0.604609 -0.033197
v -0.349224 0.695198 0.349224
v -0.349224 0.576745 -0.349224
v -0.155326 0.689035 0.257874
v 0.155326 0.689035 0.257874
v -0.133821 0.682114 0.235577
v 0.133821 0.682114 0.235577
v -0.135901 0.637018 -0.205204
v -0.135901 0.639301 -0.193724
v -0.127783 0.637018 -0.201842
v -0.135901 0.579301 -0.193724
v -0.135901 0.581585 -0.205204
v -0.127783 0.581585 -0.201842
v -0.135901 0.588088 -0.214937
v -0.135901 0.597821 -0.221440
v -0.116303 0.597821 -0.213322
v -0.120901 0.588088 -0.208724
v -0.135901 0.609301 -0.223724
v -0.135901 0.620782 -0.221440
v -0.116303 0.620782 -0.213322
v -0.114688 0.609301 -0.214937
v -0.135901 0.630515 -0.214937
v -0.120901 0.630515 -0.208724
v -0.108185 0.620782 -0.193724
v -0.105901 0.609301 -0.193724
v -0.124421 0.637018 -0.193724
v -0.114688 0.630515 -0.193724
v -0.114688 0.588088 -0.193724
v -0.124421 0.581585 -0.193724
v -0.108185 0.597821 -0.193724
v -0.120901 0.588088 -0.178724
v -0.127783 0.581585 -0.185606
v -0.114688 0.609301 -0.172511
v -0.116303 0.597821 -0.174125
v -0.120901 0.630515 -0.178724
v -0.116303 0.620782 -0.174125
v -0.127783 0.637018 -0.185606
v -0.135901 0.630515 -0.172511
v -0.135901 0.620782 -0.166007
v -0.135901 0.637018 -0.182243
v -0.135901 0.581585 -0.182243
v -0.135901 0.597821 -0.166007
v -0.135901 0.588088 -0.172511
v -0.135901 0.609301 -0.163724
v -0.144019 0.581585 -0.185606
v -0.155500 0.597821 -0.174125
v -0.150901 0.588088 -0.178724
v -0.155500 0.620782 -0.174125
v -0.157114 0.609301 -0.172511
v -0.144019 0.637018 -0.185606
v -0.150901 0.630515 -0.178724
v -0.147382 0.637018 -0.193724
v -0.157114 0.630515 -0.193724
v -0.157114 0.588088 -0.193724
v -0.147382 0.581585 -0.193724
v -0.165901 0.609301 -0.193724
v -0.163617 0.597821 -0.193724
v -0.163617 0.620782 -0.193724
v -0.150901 0.588088 -0.208724
v -0.144019 0.581585 -0.201842
v -0.157114 0.609301 -0.214937
v -0.155500 0.597821 -0.213322
v -0.150901 0.630515 -0.208724
v -0.155500 0.620782 -0.213322
v -0.144019 0.637018 -0.201842
v -0.187335 0.590784 -0.235253
v -0.187335 0.609216 -0.235253
v -0.187335 0.609216 -0.262416
v -0.187335 0.590784 -0.262416
v -0.137335 0.609216 -0.262416
v -0.137335 0.590784 -0.262416
v -0.137335 0.609216 -0.235253
v -0.137335 0.590784 -0.235253
v -0.134847 0.590784 -0.235253
v -0.134847 0.609216 -0.235253
v -0.134847 0.609216 -0.262416
v -0.134847 0.590784 -0.262416
v -0.084847 0.609216 -0.262416
v -0.084847 0.590784 -0.262416
v -0.084847 0.609216 -0.235253
v -0.084847 0.590784 -0.235253
v 0.176956 0.592365 -0.302723
v 0.163838 0.590559 -0.310402
v 0.148989 0.591867 -0.306919
v 0.141109 0.595522 -0.294315
v 0.144812 0.599384 -0.279974
v 0.157931 0.601189 -0.272295
v 0.172779 0.599882 -0.275777
v 0.180660 0.596226 -0.288381
v 0.163611 0.596409 -0.225746
v 0.163838 0.606048 -0.228400
v 0.176956 0.607854 -0.220721
v 0.176730 0.598215 -0.218068
v 0.144586 0.589745 -0.277320
v 0.140882 0.585883 -0.291662
v 0.180660 0.611715 -0.206380
v 0.180433 0.602077 -0.203726
v 0.157704 0.591551 -0.269641
v 0.172779 0.615371 -0.193776
v 0.172553 0.605732 -0.191122
v 0.172553 0.590243 -0.273124
v 0.157931 0.616679 -0.190294
v 0.157704 0.607040 -0.187640
v 0.163611 0.580920 -0.307748
v 0.176730 0.582726 -0.300069
v 0.180433 0.586587 -0.285727
v 0.148763 0.582228 -0.304265
v 0.144812 0.614873 -0.197972
v 0.144586 0.605234 -0.195319
v 0.141109 0.611011 -0.212314
v 0.140882 0.601373 -0.209660
v 0.148989 0.607356 -0.224918
v 0.148763 0.597717 -0.222264
v 0.112565 0.592365 -0.302723
v 0.099446 0.590559 -0.310402
v 0.084598 0.591867 -0.306919
v 0.076717 0.595522 -0.294315
v 0.080421 0.599384 -0.279974
v 0.093539 0.601189 -0.272295
v 0.108388 0.599882 -0.275777
v 0.116268 0.596226 -0.288381
v 0.099220 0.596409 -0.225746
v 0.099446 0.606048 -0.228400
v 0.112565 0.607854 -0.220721
v 0.112338 0.598215 -0.218068
v 0.080194 0.589745 -0.277320
v 0.076491 0.585883 -0.291662
v 0.116268 0.611715 -0.206380
v 0.116042 0.602077 -0.203726
v 0.093313 0.591551 -0.269641
v 0.108388 0.615371 -0.193776
v 0.108161 0.605732 -0.191122
v 0.108161 0.590243 -0.273124
v 0.093539 0.616679 -0.190294
v 0.093313 0.607040 -0.187640
v 0.099220 0.580920 -0.307748
v 0.112338 0.582726 -0.300069
v 0.116042 0.586587 -0.285727
v 0.084371 0.582228 -0.304265
v 0.080421 0.614873 -0.197972
v 0.080194 0.605234 -0.195319
v 0.076717 0.611011 -0.212314
v 0.076491 0.601373 -0.209660
v 0.084598 0.607356 -0.224918
v 0.084371 0.597717 -0.222264
v -0.147540 -0.373639 0.349224
v -0.147540 -0.050847 0.349224
v 0.147540 -0.050847 0.349224
v 0.147540 -0.373639 0.349224
v -0.120000 -0.374000 0.340000
v 0.120000 -0.374000 0.340000
v 0.120000 -0.381071 0.342929
v -0.120000 -0.381071 0.342929
v 0.120000 -0.384000 0.350000
v -0.120000 -0.384000 0.350000
v 0.120000 -0.381071 0.357071
v -0.120000 -0.381071 0.357071
v 0.120000 -0.374000 0.360000
v -0.120000 -0.374000 0.360000
v 0.120000 -0.366929 0.357071
v -0.120000 -0.366929 0.357071
v 0.120000 -0.364000 0.350000
v -0.120000 -0.364000 0.350000
v 0.120000 -0.366929 0.342929
v -0.120000 -0.366929 0.342929
v 0.148893 -0.027077 -0.349224
v 0.148893 0.070045 -0.349224
v 0.255195 0.071469 -0.349224
v 0.255195 -0.027015 -0.349224
vt 0.390936 0.006202
vt 0.390936 0.441870
vt 0.109810 0.441870
vt 0.109810 0.006202
vt 0.991085 0.948200
vt 0.884803 0.948200
vt 0.884803 0.936889
vt 0.991085 0.936889
vt 0.383844 0.002551
vt 0.383844 0.438830
vt 0.102324 0.438830
vt 0.102324 0.002550
vt 0.906984 0.911963
vt 0.982780 0.911963
vt 0.982780 0.965109
vt 0.906984 0.965109
vt 0.013225 0.007336
vt 0.487566 0.007336
vt 0.487566 0.481678
vt 0.013225 0.481678
vt 0.383798 0.443743
vt 0.101852 0.488826
vt 0.209474 0.353599
vt 0.201564 0.147307
vt 0.229101 0.172242
vt 0.231862 0.329750
vt 0.391407 0.491798
vt 0.109844 0.446776
vt 0.121080 0.435715
vt 0.396344 0.436061
vt 0.396283 0.484951
vt 0.121018 0.484605
vt 0.330475 0.020465
vt 0.020472 0.016333
vt 0.020518 0.010923
vt 0.330522 0.015055
vt 0.429941 0.140005
vt 0.006413 0.019550
vt 0.491587 0.009891
vt 0.012410 0.484159
vt 0.430286 0.359220
vt 0.491587 0.487701
vt 0.505391 0.000901
vt 0.986797 0.000901
vt 0.986797 0.496960
vt 0.505391 0.496960
vt 0.414473 0.344765
vt 0.414005 0.154908
vt 0.432663 0.961863
vt 0.417877 0.991435
vt 0.403091 0.961863
vt 0.417877 0.754858
vt 0.432663 0.784430
vt 0.403091 0.784430
vt 0.432663 0.814002
vt 0.432663 0.843574
vt 0.403091 0.843574
vt 0.403091 0.814002
vt 0.432663 0.873147
vt 0.432663 0.902719
vt 0.403091 0.902719
vt 0.403091 0.873147
vt 0.432663 0.932291
vt 0.403091 0.932291
vt 0.373519 0.902719
vt 0.373519 0.873147
vt 0.373519 0.961863
vt 0.373519 0.932291
vt 0.373519 0.814002
vt 0.373519 0.784430
vt 0.373519 0.843574
vt 0.388305 0.991435
vt 0.388305 0.754858
vt 0.343947 0.814002
vt 0.343947 0.784430
vt 0.343947 0.873147
vt 0.343947 0.843574
vt 0.343947 0.932291
vt 0.343947 0.902719
vt 0.358733 0.991435
vt 0.343947 0.961863
vt 0.358733 0.754858
vt 0.314375 0.932291
vt 0.314375 0.902719
vt 0.329161 0.991435
vt 0.314375 0.961863
vt 0.329161 0.754858
vt 0.314375 0.784430
vt 0.314375 0.843574
vt 0.314375 0.814002
vt 0.314375 0.873147
vt 0.299589 0.754858
vt 0.284802 0.784430
vt 0.284802 0.843574
vt 0.284802 0.814002
vt 0.284802 0.902719
vt 0.284802 0.873147
vt 0.284802 0.961863
vt 0.284802 0.932291
vt 0.299589 0.991435
vt 0.255230 0.961863
vt 0.255230 0.932291
vt 0.255230 0.814002
vt 0.255230 0.784430
vt 0.255230 0.873147
vt 0.255230 0.843574
vt 0.255230 0.902719
vt 0.270016 0.991435
vt 0.270016 0.754858
vt 0.491808 0.784430
vt 0.491808 0.814002
vt 0.462236 0.814002
vt 0.462236 0.784430
vt 0.491808 0.843574
vt 0.491808 0.873147
vt 0.462236 0.873147
vt 0.462236 0.843574
vt 0.491808 0.902719
vt 0.491808 0.932291
vt 0.462236 0.932291
vt 0.462236 0.902719
vt 0.491808 0.961863
vt 0.477022 0.991435
vt 0.462236 0.961863
vt 0.477022 0.754858
vt 0.447450 0.991435
vt 0.447450 0.754858
vt 0.536303 0.535446
vt 0.767568 0.535446
vt 0.767568 0.766711
vt 0.536303 0.766711
vt 0.520952 0.535147
vt 0.752217 0.535147
vt 0.752217 0.766412
vt 0.520952 0.766412
vt 0.532959 0.523075
vt 0.764224 0.523075
vt 0.764224 0.754341
vt 0.532959 0.754341
vt 0.514291 0.513368
vt 0.745556 0.513368
vt 0.745556 0.744633
vt 0.514291 0.744633
vt 0.512091 0.520615
vt 0.743356 0.520615
vt 0.743356 0.751881
vt 0.512091 0.751881
vt 0.522986 0.529643
vt 0.754252 0.529643
vt 0.754252 0.760908
vt 0.522986 0.760908
vt 0.533842 0.532985
vt 0.765107 0.532985
vt 0.765107 0.764250
vt 0.533842 0.764250
vt 0.522416 0.527689
vt 0.753681 0.527689
vt 0.753681 0.758954
vt 0.522416 0.758954
vt 0.528037 0.523075
vt 0.759302 0.523075
vt 0.759302 0.754341
vt 0.528037 0.754341
vt 0.526692 0.520344
vt 0.757957 0.520344
vt 0.757957 0.751609
vt 0.526692 0.751609
vt 0.517012 0.532919
vt 0.748277 0.532919
vt 0.748277 0.764185
vt 0.517012 0.764185
vt 0.531599 0.517339
vt 0.762865 0.517339
vt 0.762865 0.748604
vt 0.531599 0.748604
vt 0.210668 0.953504
vt 0.129791 0.987004
vt 0.048915 0.953504
vt 0.015415 0.872627
vt 0.048915 0.791751
vt 0.129791 0.758251
vt 0.210668 0.791751
vt 0.244168 0.872627
vt 0.438774 0.751105
vt 0.438774 0.992539
vt 0.378416 0.992539
vt 0.378416 0.751105
vt 0.196809 0.754416
vt 0.196809 0.992700
vt 0.137238 0.992700
vt 0.137238 0.754416
vt 0.318057 0.992539
vt 0.318057 0.751105
vt 0.100006 0.756278
vt 0.100006 0.994562
vt 0.040435 0.994562
vt 0.040435 0.756278
vt 0.469896 0.753935
vt 0.469896 0.995369
vt 0.409538 0.995369
vt 0.409538 0.753935
vt 0.159577 0.756278
vt 0.159577 0.994562
vt 0.349180 0.995369
vt 0.349180 0.753935
vt 0.126068 0.982350
vt 0.206944 0.948849
vt 0.240444 0.867973
vt 0.206944 0.787097
vt 0.126068 0.753597
vt 0.045192 0.787097
vt 0.011692 0.867973
vt 0.045192 0.948849
vt 0.219148 0.756278
vt 0.219148 0.994562
vt 0.288821 0.995369
vt 0.288821 0.753935
vt 0.077667 0.754416
vt 0.077667 0.992700
vt 0.018096 0.992700
vt 0.018096 0.754416
vt 0.128861 0.753485
vt 0.128861 0.991769
vt 0.069290 0.991769
vt 0.069290 0.753485
vt 0.447262 0.752049
vt 0.447262 0.993482
vt 0.386904 0.993482
vt 0.386904 0.752049
vt 0.461304 0.953768
vt 0.379359 0.987711
vt 0.297413 0.953768
vt 0.263471 0.871822
vt 0.297413 0.789877
vt 0.379359 0.755934
vt 0.461304 0.789877
vt 0.495247 0.871822
vt 0.188432 0.753485
vt 0.188432 0.991769
vt 0.326545 0.993482
vt 0.326545 0.752049
vt 0.266187 0.993482
vt 0.266187 0.752049
vt 0.375586 0.982995
vt 0.457532 0.949052
vt 0.491475 0.867107
vt 0.457532 0.785162
vt 0.375586 0.751219
vt 0.293641 0.785162
vt 0.259698 0.867107
vt 0.293641 0.949052
vt 0.461664 0.705764
vt 0.380702 0.739299
vt 0.299740 0.705764
vt 0.266205 0.624802
vt 0.299740 0.543840
vt 0.380702 0.510304
vt 0.461664 0.543840
vt 0.495199 0.624802
vt 0.188914 0.509141
vt 0.188914 0.745912
vt 0.127961 0.745912
vt 0.127961 0.509141
vt 0.447790 0.506465
vt 0.447790 0.745002
vt 0.388156 0.745002
vt 0.388156 0.506465
vt 0.067008 0.745912
vt 0.067008 0.509141
vt 0.350885 0.508329
vt 0.350885 0.746865
vt 0.291251 0.746865
vt 0.291251 0.508329
vt 0.220343 0.511916
vt 0.220343 0.748687
vt 0.159390 0.748687
vt 0.159390 0.511916
vt 0.410519 0.508329
vt 0.410519 0.746865
vt 0.098437 0.748687
vt 0.098437 0.511916
vt 0.376975 0.734640
vt 0.457937 0.701105
vt 0.491472 0.620143
vt 0.457937 0.539181
vt 0.376975 0.505646
vt 0.296013 0.539181
vt 0.262478 0.620143
vt 0.296013 0.701105
vt 0.470153 0.508329
vt 0.470153 0.746865
vt 0.037484 0.748687
vt 0.037484 0.511916
vt 0.328522 0.506465
vt 0.328522 0.745002
vt 0.268888 0.745002
vt 0.268888 0.506465
vt 0.379770 0.505534
vt 0.379770 0.744070
vt 0.320136 0.744070
vt 0.320136 0.505534
vt 0.197486 0.510066
vt 0.197486 0.746837
vt 0.136533 0.746837
vt 0.136533 0.510066
vt 0.211666 0.707890
vt 0.128913 0.741177
vt 0.046161 0.707890
vt 0.011883 0.627527
vt 0.046161 0.547164
vt 0.128913 0.513876
vt 0.211666 0.547164
vt 0.245943 0.627527
vt 0.439404 0.505534
vt 0.439404 0.744070
vt 0.075579 0.746837
vt 0.075579 0.510066
vt 0.014626 0.746837
vt 0.014626 0.510066
vt 0.125104 0.736553
vt 0.207857 0.703265
vt 0.242134 0.622902
vt 0.207857 0.542539
vt 0.125104 0.509252
vt 0.042351 0.542539
vt 0.008074 0.622902
vt 0.042351 0.703265
vt 0.199628 0.062195
vt 0.200425 0.189563
vt 0.119881 0.008199
vt 0.316300 0.190432
vt 0.316481 0.061615
vt 0.396344 0.006780
vt 0.413553 0.034619
vt 0.413553 0.453761
vt 0.308767 0.453761
vt 0.308767 0.034619
vt 0.203982 0.453761
vt 0.203982 0.034619
vt 0.099196 0.453761
vt 0.099196 0.034619
vt 0.379170 0.057541
vt 0.379170 0.476683
vt 0.274385 0.476683
vt 0.274385 0.057541
vt 0.169599 0.476683
vt 0.169599 0.057541
vt 0.328415 0.019884
vt 0.328415 0.439026
vt 0.223629 0.439026
vt 0.223629 0.019884
vt 0.365891 0.365167
vt 0.223629 0.424093
vt 0.081367 0.365167
vt 0.022441 0.222905
vt 0.081367 0.080644
vt 0.223629 0.021718
vt 0.365891 0.080644
vt 0.424818 0.222905
vt 0.118844 0.439026
vt 0.118844 0.019884
vt 0.320228 0.036256
vt 0.320228 0.455398
vt 0.215443 0.455398
vt 0.215443 0.036256
vt 0.256375 0.435554
vt 0.398636 0.376628
vt 0.457563 0.234366
vt 0.398636 0.092105
vt 0.256375 0.033178
vt 0.114113 0.092105
vt 0.055186 0.234366
vt 0.114113 0.376628
vt 0.252716 0.174710
vt 0.252359 0.184999
vt 0.261292 0.185133
vt 0.261033 0.174639
vt 0.040078 0.040442
vt 0.040818 0.102410
vt 0.031479 0.470476
vt 0.045038 0.102344
vt 0.330522 0.487078
vt 0.043510 0.040412
vt 0.988105 0.991259
vt 0.908143 0.991213
vt 0.907022 0.903691
vt 0.988105 0.903738
vt 0.289973 0.283113
vt 0.289747 0.240789
vt 0.243696 0.241652
vt 0.244128 0.283616
vn -1.0000 -0.0000 0.0000
vn 0.0000 0.0000 -1.0000
vn 1.0000 0.0000 0.0000
vn 0.0000 -0.0000 1.0000
vn 0.0000 -1.0000 0.0000
vn 0.0000 0.7293 0.6841
vn -0.0366 0.9847 -0.1705
vn 0.0000 0.9825 -0.1863
vn 0.0366 0.9847 -0.1705
vn 0.0000 0.9977 -0.0673
vn 0.0000 0.9608 -0.2771
vn -0.6214 0.7636 -0.1756
vn 0.6214 0.7636 -0.1756
vn 0.0000 0.9550 -0.2964
vn 0.0805 0.9776 -0.1944
vn 0.0805 -0.9776 -0.1945
vn 0.3256 -0.5253 -0.7862
vn 0.3764 0.1808 -0.9087
vn 0.2242 0.8103 -0.5414
vn 0.2242 -0.8103 -0.5414
vn 0.3764 -0.1808 -0.9087
vn 0.3256 0.5253 -0.7862
vn 0.9087 0.1808 -0.3764
vn 0.5414 0.8103 -0.2242
vn 0.5414 -0.8103 -0.2242
vn 0.9087 -0.1808 -0.3764
vn 0.7862 0.5253 -0.3256
vn 0.1944 0.9776 -0.0805
vn 0.1945 -0.9776 -0.0805
vn 0.7862 -0.5253 -0.3256
vn 0.5414 -0.8103 0.2242
vn 0.9087 -0.1808 0.3764
vn 0.7862 0.5253 0.3256
vn 0.1944 0.9776 0.0805
vn 0.1945 -0.9776 0.0805
vn 0.7862 -0.5253 0.3256
vn 0.9087 0.1807 0.3764
vn 0.5414 0.8103 0.2242
vn 0.3256 0.5253 0.7861
vn 0.0805 0.9776 0.1944
vn 0.0806 -0.9776 0.1945
vn 0.3256 -0.5253 0.7861
vn 0.3764 0.1807 0.9087
vn 0.2243 0.8103 0.5414
vn 0.2243 -0.8103 0.5414
vn 0.3764 -0.1807 0.9087
vn -0.0806 -0.9776 0.1945
vn -0.3256 -0.5253 0.7861
vn -0.3764 0.1807 0.9087
vn -0.2243 0.8103 0.5414
vn -0.2243 -0.8103 0.5414
vn -0.3764 -0.1807 0.9087
vn -0.3256 0.5253 0.7861
vn -0.0803 0.9775 0.1951
vn -0.5414 0.8103 0.2243
vn -0.5414 -0.8103 0.2243
vn -0.9087 -0.1807 0.3764
vn -0.7862 0.5253 0.3256
vn -0.1944 0.9776 0.0805
vn -0.1945 -0.9776 0.0806
vn -0.7862 -0.5253 0.3256
vn -0.9087 0.1807 0.3764
vn -0.5414 -0.8103 -0.2243
vn -0.9087 -0.1807 -0.3764
vn -0.7862 0.5253 -0.3256
vn -0.1948 0.9775 -0.0803
vn -0.1945 -0.9776 -0.0806
vn -0.7862 -0.5253 -0.3256
vn -0.9087 0.1807 -0.3764
vn -0.5414 0.8103 -0.2243
vn -0.0805 0.9776 -0.1944
vn -0.0805 -0.9776 -0.1945
vn -0.3256 -0.5253 -0.7862
vn -0.3764 0.1807 -0.9087
vn -0.2242 0.8103 -0.5414
vn -0.2242 -0.8103 -0.5414
vn -0.3764 -0.1808 -0.9087
vn -0.3256 0.5253 -0.7862
vn 0.0000 1.0000 0.0000
vn 0.0227 0.9639 -0.2654
vn 0.5148 -0.2388 -0.8234
vn -0.9700 0.0854 0.2275
vn 0.9700 -0.0854 -0.2275
vn -0.5148 0.2388 0.8234
vn 0.8570 0.1180 0.5016
vn 0.2420 0.2522 0.9369
vn 0.2419 0.2523 0.9369
vn -0.0227 -0.9639 0.2654
vn -0.2420 -0.2523 -0.9369
vn -0.8570 -0.1180 -0.5016
vn -0.2419 -0.2523 -0.9369
vn 0.2420 0.2523 0.9369
vn 0.0000 -0.3827 -0.9239
vn 0.0000 -0.9239 -0.3827
vn 0.0000 -0.9239 0.3827
vn 0.0000 -0.3827 0.9239
vn 0.0000 0.3827 0.9239
vn 0.0000 0.9239 0.3827
vn 0.0000 0.9239 -0.3827
vn 0.0000 0.3827 -0.9239
usemtl None
s 1
f 1/1/1 2/2/1 3/3/1 4/4/1
f 5/5/2 6/6/2 7/7/2 8/8/2
f 9/9/3 10/10/3 11/11/3 12/12/3
f 13/13/4 14/14/4 15/15/4 16/16/4
f 4/17/5 9/18/5 12/19/5 1/20/5
f 11/11/3 10/10/3 17/21/3 18/22/3
f 19/23/6 20/24/6 21/25/6 22/26/6
f 3/3/1 2/2/1 23/27/1 24/28/1
f 2/29/4 11/30/4 18/31/4 23/32/4
f 10/33/2 3/34/2 24/35/2 17/36/2
f 25/37/7 20/24/7 24/38/7 23/39/7
f 20/24/8 19/23/8 17/40/8 24/38/8
f 19/23/9 26/41/9 18/42/9 17/40/9
f 26/41/10 25/37/10 23/39/10 18/42/10
f 22/43/11 21/44/11 27/45/11 28/46/11
f 26/41/12 19/23/12 22/26/12 28/47/12
f 20/24/13 25/37/13 27/48/13 21/25/13
f 25/37/14 26/41/14 28/47/14 27/48/14
f 29/49/15 30/50/15 31/51/15
f 32/52/16 33/53/16 34/54/16
f 35/55/17 36/56/17 37/57/17 38/58/17
f 39/59/18 40/60/18 41/61/18 42/62/18
f 43/63/19 29/49/19 31/51/19 44/64/19
f 33/53/20 35/55/20 38/58/20 34/54/20
f 36/56/21 39/59/21 42/62/21 37/57/21
f 40/60/22 43/63/22 44/64/22 41/61/22
f 42/62/23 41/61/23 45/65/23 46/66/23
f 44/64/24 31/51/24 47/67/24 48/68/24
f 34/54/25 38/58/25 49/69/25 50/70/25
f 37/57/26 42/62/26 46/66/26 51/71/26
f 41/61/27 44/64/27 48/68/27 45/65/27
f 31/51/28 30/72/28 47/67/28
f 32/73/29 34/54/29 50/70/29
f 38/58/30 37/57/30 51/71/30 49/69/30
f 50/70/31 49/69/31 52/74/31 53/75/31
f 51/71/32 46/66/32 54/76/32 55/77/32
f 45/65/33 48/68/33 56/78/33 57/79/33
f 47/67/34 30/80/34 58/81/34
f 32/82/35 50/70/35 53/75/35
f 49/69/36 51/71/36 55/77/36 52/74/36
f 46/66/37 45/65/37 57/79/37 54/76/37
f 48/68/38 47/67/38 58/81/38 56/78/38
f 57/79/39 56/78/39 59/83/39 60/84/39
f 58/81/40 30/85/40 61/86/40
f 32/87/41 53/75/41 62/88/41
f 52/74/42 55/77/42 63/89/42 64/90/42
f 54/76/43 57/79/43 60/84/43 65/91/43
f 56/78/44 58/81/44 61/86/44 59/83/44
f 53/75/45 52/74/45 64/90/45 62/88/45
f 55/77/46 54/76/46 65/91/46 63/89/46
f 32/92/47 62/88/47 66/93/47
f 64/90/48 63/89/48 67/94/48 68/95/48
f 65/91/49 60/84/49 69/96/49 70/97/49
f 59/83/50 61/86/50 71/98/50 72/99/50
f 62/88/51 64/90/51 68/95/51 66/93/51
f 63/89/52 65/91/52 70/97/52 67/94/52
f 60/84/53 59/83/53 72/99/53 69/96/53
f 61/86/54 30/100/54 71/98/54
f 72/99/55 71/98/55 73/101/55 74/102/55
f 66/93/56 68/95/56 75/103/56 76/104/56
f 67/94/57 70/97/57 77/105/57 78/106/57
f 69/96/58 72/99/58 74/102/58 79/107/58
f 71/98/59 30/108/59 73/101/59
f 32/109/60 66/93/60 76/104/60
f 68/95/61 67/94/61 78/106/61 75/103/61
f 70/97/62 69/96/62 79/107/62 77/105/62
f 76/110/63 75/111/63 80/112/63 81/113/63
f 78/114/64 77/115/64 82/116/64 83/117/64
f 79/118/65 74/119/65 84/120/65 85/121/65
f 73/122/66 30/123/66 86/124/66
f 32/125/67 76/110/67 81/113/67
f 75/111/68 78/114/68 83/117/68 80/112/68
f 77/115/69 79/118/69 85/121/69 82/116/69
f 74/119/70 73/122/70 86/124/70 84/120/70
f 86/124/71 30/126/71 29/49/71
f 32/127/72 81/113/72 33/53/72
f 80/112/73 83/117/73 36/56/73 35/55/73
f 82/116/74 85/121/74 40/60/74 39/59/74
f 84/120/75 86/124/75 29/49/75 43/63/75
f 81/113/76 80/112/76 35/55/76 33/53/76
f 83/117/77 82/116/77 39/59/77 36/56/77
f 85/121/78 84/120/78 43/63/78 40/60/78
f 87/128/1 88/129/1 89/130/1 90/131/1
f 90/132/2 89/133/2 91/134/2 92/135/2
f 92/136/3 91/137/3 93/138/3 94/139/3
f 94/140/4 93/141/4 88/142/4 87/143/4
f 90/144/5 92/145/5 94/146/5 87/147/5
f 91/148/79 89/149/79 88/150/79 93/151/79
f 95/152/1 96/153/1 97/154/1 98/155/1
f 98/156/2 97/157/2 99/158/2 100/159/2
f 100/160/3 99/161/3 101/162/3 102/163/3
f 102/164/4 101/165/4 96/166/4 95/167/4
f 98/168/5 100/169/5 102/170/5 95/171/5
f 99/172/79 97/173/79 96/174/79 101/175/79
f 103/176/80 104/177/80 105/178/80 106/179/80 107/180/80 108/181/80 109/182/80 110/183/80
f 111/184/81 112/185/81 113/186/81 114/187/81
f 115/188/82 107/189/82 106/190/82 116/191/82
f 114/187/83 113/186/83 117/192/83 118/193/83
f 119/194/84 108/195/84 107/196/84 115/197/84
f 118/198/85 117/199/85 120/200/85 121/201/85
f 122/202/86 109/203/86 108/195/86 119/194/86
f 121/201/87 120/200/87 123/204/87 124/205/87
f 125/206/88 126/207/88 127/208/88 122/209/88 119/210/88 115/211/88 116/212/88 128/213/88
f 127/214/85 110/215/85 109/203/85 122/202/85
f 124/205/84 123/204/84 129/216/84 130/217/84
f 128/218/89 105/219/89 104/220/89 125/221/89
f 126/222/83 103/223/83 110/224/83 127/225/83
f 130/226/82 129/227/82 131/228/82 132/229/82
f 113/230/80 112/231/80 133/232/80 131/233/80 129/234/80 123/235/80 120/236/80 117/237/80
f 125/238/81 104/239/81 103/223/81 126/222/81
f 132/229/90 131/228/90 133/240/90 134/241/90
f 116/191/90 106/190/90 105/219/90 128/218/90
f 134/241/91 133/240/91 112/242/91 111/243/91
f 111/244/88 114/245/88 118/246/88 121/247/88 124/248/88 130/249/88 132/250/88 134/251/88
f 135/252/80 136/253/80 137/254/80 138/255/80 139/256/80 140/257/80 141/258/80 142/259/80
f 143/260/81 144/261/81 145/262/81 146/263/81
f 147/264/82 139/265/82 138/266/82 148/267/82
f 146/263/83 145/262/83 149/268/83 150/269/83
f 151/270/84 140/271/84 139/272/84 147/273/84
f 150/274/85 149/275/85 152/276/85 153/277/85
f 154/278/92 141/279/92 140/271/92 151/270/92
f 153/277/87 152/276/87 155/280/87 156/281/87
f 157/282/88 158/283/88 159/284/88 154/285/88 151/286/88 147/287/88 148/288/88 160/289/88
f 159/290/85 142/291/85 141/279/85 154/278/85
f 156/281/84 155/280/84 161/292/84 162/293/84
f 160/294/89 137/295/89 136/296/89 157/297/89
f 158/298/83 135/299/83 142/300/83 159/301/83
f 162/302/82 161/303/82 163/304/82 164/305/82
f 145/306/80 144/307/80 165/308/80 163/309/80 161/310/80 155/311/80 152/312/80 149/313/80
f 157/314/81 136/315/81 135/299/81 158/298/81
f 164/305/90 163/304/90 165/316/90 166/317/90
f 148/267/90 138/266/90 137/295/90 160/294/90
f 166/317/91 165/316/91 144/318/91 143/319/91
f 143/320/88 146/321/88 150/322/88 153/323/88 156/324/88 162/325/88 164/326/88 166/327/88
f 167/328/4 168/329/4 2/29/4 1/330/4
f 169/331/4 170/332/4 12/333/4 11/30/4
f 170/332/4 167/328/4 1/330/4 12/333/4
f 168/329/4 169/331/4 11/30/4 2/29/4
f 171/334/93 172/335/93 173/336/93 174/337/93
f 174/337/94 173/336/94 175/338/94 176/339/94
f 176/339/95 175/338/95 177/340/95 178/341/95
f 178/342/96 177/343/96 179/344/96 180/345/96
f 180/345/97 179/344/97 181/346/97 182/347/97
f 182/348/98 181/349/98 183/350/98 184/351/98
f 173/352/3 172/353/3 185/354/3 183/355/3 181/356/3 179/357/3 177/358/3 175/359/3
f 184/351/99 183/350/99 185/360/99 186/361/99
f 186/362/100 185/363/100 172/364/100 171/365/100
f 171/366/1 174/367/1 176/368/1 178/369/1 180/370/1 182/371/1 184/372/1 186/373/1
f 16/374/4 15/375/4 168/329/4 167/328/4
f 14/376/4 13/377/4 170/332/4 169/331/4
f 13/377/4 16/374/4 167/328/4 170/332/4
f 15/375/4 14/376/4 169/331/4 168/329/4
f 6/378/2 5/379/2 4/380/2 3/34/2
f 5/379/2 8/381/2 9/382/2 4/380/2
f 7/383/2 6/378/2 3/34/2 10/33/2
f 187/384/2 188/385/2 189/386/2 190/387/2
f 190/388/2 189/389/2 10/33/2 9/382/2
f 188/390/2 187/391/2 8/381/2 7/383/2
f 187/391/2 190/388/2 9/382/2 8/381/2
f 189/389/2 188/390/2 7/383/2 10/33/2
