# Blender v2.83.5 OBJ File: ''
# www.blender.org
mtllib mese_miner.mtl
o Circle
v -0.308318 0.569594 -0.534023
v 0.308318 0.569594 -0.534023
v 0.500000 0.569594 -0.866025
v -0.500000 0.569594 -0.866025
v -0.308318 0.412411 -0.534023
v -0.500000 0.412411 -0.866025
v 0.500000 0.412411 -0.866025
v 0.308318 0.412411 -0.534023
v 0.577080 -0.509495 -0.621852
v 0.558318 -0.509495 -0.322345
v -0.308318 0.412411 0.534023
v -0.500000 0.412411 0.866025
v -1.000000 0.412411 0.000000
v -0.616637 0.412411 0.000000
v 0.308319 0.412411 0.534023
v 0.500000 0.412411 0.866025
v 0.250000 -0.509495 0.810692
v 0.000000 -0.509495 0.644691
v 0.616637 0.412411 0.000000
v 1.000000 0.412411 0.000000
v -0.250000 -0.509495 0.810692
v -0.616637 0.569594 0.000000
v -1.000000 0.569594 0.000000
v -0.308318 0.569594 0.534023
v -0.500000 0.569594 0.866025
v 0.308319 0.569594 0.534023
v 0.500000 0.569594 0.866025
v 0.616637 0.569594 0.000000
v 1.000000 0.569594 0.000000
v -0.558318 -0.509495 -0.322345
v -0.827080 -0.509495 -0.188839
v -0.577080 -0.509495 -0.621852
v 0.827080 -0.509495 -0.188839
v 0.000000 0.300000 0.000000
v 0.217080 0.465836 0.157716
v -0.082915 0.465836 0.255192
v 0.217080 0.465836 -0.157716
v -0.268328 0.465836 0.000000
v -0.082915 0.465836 -0.255192
v 0.268328 0.734165 0.000000
v 0.082915 0.734165 0.255192
v -0.217080 0.734165 0.157716
v -0.217080 0.734165 -0.157716
v 0.082915 0.734165 -0.255192
v 0.000000 0.900000 0.000000
vt 0.120485 0.311601
vt 0.247478 0.384921
vt 0.247479 0.476087
vt 0.041533 0.357184
vt 0.855854 0.064571
vt 0.933948 0.019842
vt 0.933948 0.253192
vt 0.855854 0.208463
vt 0.721722 0.200994
vt 0.722112 0.121094
vt 0.939157 0.176951
vt 0.939154 0.246977
vt 0.858944 0.074755
vt 0.937037 0.030026
vt 0.937037 0.263375
vt 0.858944 0.218646
vt 0.995784 0.221343
vt 0.915720 0.221343
vt 0.941049 0.002985
vt 0.982798 0.000000
vt 0.781344 0.139125
vt 0.859438 0.094396
vt 0.859438 0.327746
vt 0.781344 0.283017
vt 0.680891 0.089944
vt 0.916110 0.089944
vt 0.857305 0.305416
vt 0.739696 0.305416
vt 0.120485 0.164961
vt 0.041533 0.119379
vt 0.247479 0.091642
vt 0.247479 0.000476
vt 0.374472 0.164962
vt 0.453424 0.119379
vt 0.374472 0.311601
vt 0.453424 0.357184
vt 0.827849 0.236446
vt 0.822153 0.108812
vt 0.858991 0.108812
vt 0.864688 0.236446
vt 0.920016 0.136819
vt 0.684797 0.136819
vt 0.684797 0.100256
vt 0.920016 0.100256
vt 0.863487 0.062811
vt 0.863487 0.296161
vt 0.826526 0.296161
vt 0.826526 0.062811
vt 0.779683 0.065206
vt 0.924727 0.065206
vt 0.924727 0.101874
vt 0.779683 0.101874
vt 0.932479 0.089507
vt 0.912964 0.285648
vt 0.876161 0.284031
vt 0.895677 0.087891
vt 0.905608 0.167364
vt 0.905608 0.023472
vt 0.942464 0.023472
vt 0.942464 0.167364
vt 0.829147 0.090490
vt 0.829147 0.298911
vt 0.792177 0.299089
vt 0.792177 0.090668
vt 0.972487 0.038093
vt 0.971860 0.166612
vt 0.934889 0.166612
vt 0.935516 0.038093
vt 0.862183 0.117679
vt 0.862183 0.324865
vt 0.825380 0.323249
vt 0.825380 0.116062
vt 0.872934 0.222093
vt 0.879563 0.100736
vt 0.916401 0.100736
vt 0.909772 0.222093
vt 0.905319 0.080161
vt 0.907512 0.275248
vt 0.870542 0.275426
vt 0.868349 0.080339
vt 0.829144 0.163884
vt 0.829909 0.284187
vt 0.792938 0.284187
vt 0.792173 0.163884
vt 0.882334 0.151943
vt 0.921381 0.093606
vt 0.921381 0.210280
vt 0.852766 0.148694
vt 0.891812 0.090357
vt 0.891812 0.207031
vt 0.790553 0.161709
vt 0.829599 0.103371
vt 0.829599 0.220046
vt 0.967696 0.270284
vt 0.822651 0.270284
vt 0.895174 0.054590
vt 0.821675 0.049557
vt 0.911678 0.055070
vt 0.911678 0.275903
vt 0.848734 0.269573
vt 0.723679 0.255942
vt 0.723679 0.047521
vt 0.940656 0.104392
vt 0.940656 0.208602
vt 0.934956 0.250859
vt 0.844953 0.256372
vt 0.872012 0.036357
vt 0.934956 0.030026
vt 0.739136 0.285803
vt 0.739136 0.078617
vt 0.956235 0.133982
vt 0.956235 0.237575
vt 0.971360 0.067533
vt 0.964731 0.188890
vt 0.750114 0.114336
vt 0.945312 0.259621
vt 0.864771 0.259621
vt 0.885566 0.043698
vt 0.927908 0.044033
vt 0.699049 0.200203
vt 0.698284 0.079900
vt 0.915716 0.125883
vt 0.944380 0.085840
vt 0.947922 0.165189
vt 0.726676 0.211993
vt 0.726562 0.141978
vt 0.691515 0.746078
vt 0.583234 0.628226
vt 0.750440 0.529516
vt 0.583234 0.863931
vt 0.022681 0.746078
vt 0.081606 0.529516
vt 0.140535 0.746078
vt 0.081606 0.962641
vt 0.750440 0.962641
vt 0.474952 0.746078
vt 0.416023 0.529516
vt 0.248817 0.628226
vt 0.248817 0.863931
vt 0.416023 0.962641
vt 0.357098 0.746078
vn 0.0000 1.0000 0.0000
vn 0.0000 -1.0000 -0.0000
vn -0.9211 -0.2393 -0.3070
vn 0.7264 -0.2393 -0.6443
vn 0.0000 -0.0599 0.9982
vn 0.8660 0.0000 -0.5000
vn 0.0000 0.0000 1.0000
vn 0.0000 0.0000 -1.0000
vn 0.8660 0.0000 0.5000
vn -0.8660 0.0000 -0.5000
vn -0.8660 0.0000 0.5000
vn 0.0000 -0.1192 -0.9929
vn -0.1947 -0.2393 0.9512
vn -0.8645 -0.0599 -0.4991
vn 0.1947 -0.2393 0.9512
vn 0.8645 -0.0599 -0.4991
vn 0.8599 -0.1192 0.4964
vn -0.7264 -0.2393 -0.6443
vn -0.8599 -0.1192 0.4964
vn 0.9211 -0.2393 -0.3070
vn 0.1876 -0.7947 0.5774
vn 0.6071 -0.7947 0.0000
vn -0.4911 -0.7947 0.3568
vn -0.4911 -0.7947 -0.3568
vn 0.1876 -0.7947 -0.5774
vn 0.9822 -0.1876 0.0000
vn 0.3035 -0.1876 0.9342
vn -0.7946 -0.1876 0.5774
vn -0.7946 -0.1876 -0.5774
vn 0.3035 -0.1876 -0.9342
vn 0.7946 0.1876 0.5774
vn -0.3035 0.1876 0.9342
vn -0.9822 0.1876 0.0000
vn -0.3035 0.1876 -0.9342
vn 0.7946 0.1876 -0.5774
vn 0.4911 0.7947 0.3568
vn -0.1876 0.7947 0.5774
vn -0.6071 0.7947 0.0000
vn -0.1876 0.7947 -0.5774
vn 0.4911 0.7947 -0.3568
usemtl None
s 1
f 1/1/1 2/2/1 3/3/1 4/4/1
f 5/5/2 6/6/2 7/7/2 8/8/2
f 8/9/3 7/10/3 9/11/3 10/12/3
f 11/13/2 12/14/2 13/15/2 14/16/2
f 15/17/4 16/18/4 17/19/4 18/20/4
f 19/21/2 20/22/2 16/23/2 15/24/2
f 16/25/5 12/26/5 21/27/5 17/28/5
f 22/29/1 1/1/1 4/4/1 23/30/1
f 24/31/1 22/29/1 23/30/1 25/32/1
f 26/33/1 24/31/1 25/32/1 27/34/1
f 28/35/1 26/33/1 27/34/1 29/36/1
f 2/2/1 28/35/1 29/36/1 3/3/1
f 11/37/6 14/38/6 22/39/6 24/40/6
f 12/41/7 16/42/7 27/43/7 25/44/7
f 7/45/8 6/46/8 4/47/8 3/48/8
f 15/49/8 11/50/8 24/51/8 26/52/8
f 16/53/9 20/54/9 29/55/9 27/56/9
f 5/57/7 8/58/7 2/59/7 1/60/7
f 6/61/10 13/62/10 23/63/10 4/64/10
f 19/65/10 15/66/10 26/67/10 28/68/10
f 20/69/6 7/70/6 3/71/6 29/72/6
f 14/73/9 5/74/9 1/75/9 22/76/9
f 13/77/11 12/78/11 25/79/11 23/80/11
f 8/81/11 19/82/11 28/83/11 2/84/11
f 30/85/2 31/86/2 32/87/2
f 18/88/2 17/89/2 21/90/2
f 10/91/2 9/92/2 33/93/2
f 11/94/12 15/95/12 18/96/12
f 20/97/13 19/98/13 10/99/13 33/100/13
f 13/101/14 6/102/14 32/103/14 31/104/14
f 14/105/15 13/106/15 31/107/15 30/108/15
f 7/109/16 20/110/16 33/111/16 9/112/16
f 5/113/17 14/114/17 30/115/17
f 12/116/18 11/117/18 18/118/18 21/119/18
f 19/120/19 8/121/19 10/122/19
f 6/123/20 5/124/20 30/125/20 32/126/20
f 34/127/21 35/128/21 36/129/21
f 35/128/22 34/127/22 37/130/22
f 34/131/23 36/132/23 38/133/23
f 34/131/24 38/133/24 39/134/24
f 34/127/25 39/135/25 37/130/25
f 35/128/26 37/130/26 40/136/26
f 36/129/27 35/128/27 41/137/27
f 38/133/28 36/132/28 42/138/28
f 39/134/29 38/133/29 43/139/29
f 37/130/30 39/135/30 44/140/30
f 35/128/31 40/136/31 41/137/31
f 36/132/32 41/137/32 42/138/32
f 38/133/33 42/138/33 43/139/33
f 39/134/34 43/139/34 44/140/34
f 37/130/35 44/140/35 40/136/35
f 41/137/36 40/136/36 45/141/36
f 42/138/37 41/137/37 45/141/37
f 43/139/38 42/138/38 45/141/38
f 44/140/39 43/139/39 45/141/39
f 40/136/40 44/140/40 45/141/40
