# Blender v2.83.0 OBJ File: 'orb_of_light_ray_of_light.blend'
# www.blender.org
mtllib orb_of_light_ray_of_light.mtl
o Cylinder_Cylinder.002
v 0.000000 0.000436 1.000000
v 0.000000 0.300000 0.723239
v 0.000000 0.058878 0.994682
v 0.000000 0.115074 0.978933
v 0.000000 0.166865 0.953357
v 0.000000 0.212260 0.918939
v 0.000000 0.249514 0.876999
v 0.000000 0.277197 0.829151
v 0.000000 0.294244 0.777232
v 0.000308 0.000308 1.000000
v 0.212132 0.212132 0.723239
v 0.041633 0.041633 0.994682
v 0.081370 0.081370 0.978933
v 0.117991 0.117991 0.953357
v 0.150090 0.150090 0.918939
v 0.176433 0.176433 0.876999
v 0.196008 0.196008 0.829151
v 0.208062 0.208062 0.777232
v 0.000436 -0.000000 1.000000
v 0.300000 -0.000000 0.723239
v 0.058878 -0.000000 0.994682
v 0.115074 -0.000000 0.978933
v 0.166865 -0.000000 0.953357
v 0.212260 -0.000000 0.918939
v 0.249514 -0.000000 0.876999
v 0.277197 -0.000000 0.829151
v 0.294244 -0.000000 0.777232
v 0.000308 -0.000308 1.000000
v 0.212132 -0.212132 0.723239
v 0.041633 -0.041633 0.994682
v 0.081370 -0.081370 0.978933
v 0.117991 -0.117991 0.953357
v 0.150090 -0.150090 0.918939
v 0.176433 -0.176433 0.876999
v 0.196008 -0.196008 0.829151
v 0.208062 -0.208062 0.777232
v 0.000000 -0.000436 1.000000
v -0.000000 -0.300000 0.723239
v 0.000000 -0.058878 0.994682
v 0.000000 -0.115074 0.978933
v -0.000000 -0.166865 0.953357
v -0.000000 -0.212260 0.918939
v -0.000000 -0.249514 0.876999
v -0.000000 -0.277197 0.829151
v -0.000000 -0.294244 0.777232
v -0.000308 -0.000308 1.000000
v -0.212132 -0.212132 0.723239
v -0.041633 -0.041633 0.994682
v -0.081370 -0.081370 0.978933
v -0.117991 -0.117991 0.953357
v -0.150090 -0.150090 0.918939
v -0.176433 -0.176433 0.876999
v -0.196008 -0.196008 0.829151
v -0.208062 -0.208062 0.777232
v -0.000436 -0.000000 1.000000
v -0.300000 -0.000000 0.723239
v -0.058878 -0.000000 0.994682
v -0.115074 -0.000000 0.978933
v -0.166865 -0.000000 0.953357
v -0.212260 -0.000000 0.918939
v -0.249514 -0.000000 0.876999
v -0.277197 -0.000000 0.829151
v -0.294244 -0.000000 0.777232
v -0.000308 0.000308 1.000000
v -0.212132 0.212132 0.723239
v -0.041633 0.041633 0.994682
v -0.081370 0.081370 0.978933
v -0.117991 0.117991 0.953357
v -0.150090 0.150090 0.918939
v -0.176433 0.176433 0.876999
v -0.196008 0.196008 0.829151
v -0.208062 0.208062 0.777232
v 0.000000 0.010326 -1.000000
v 0.000000 0.300000 -0.732376
v 0.000000 0.066838 -0.994858
v 0.000000 0.121179 -0.979628
v 0.000000 0.171260 -0.954897
v 0.000000 0.215156 -0.921615
v 0.000000 0.251181 -0.881060
v 0.000000 0.277950 -0.834791
v 0.000000 0.294434 -0.784587
v 0.212132 0.212132 -0.732376
v 0.007301 0.007301 -1.000000
v 0.208196 0.208196 -0.784587
v 0.196540 0.196540 -0.834791
v 0.177612 0.177612 -0.881060
v 0.152138 0.152139 -0.921615
v 0.121099 0.121099 -0.954897
v 0.085687 0.085687 -0.979628
v 0.047262 0.047262 -0.994858
v 0.300000 0.000000 -0.732376
v 0.010326 0.000000 -1.000000
v 0.294434 0.000000 -0.784587
v 0.277950 0.000000 -0.834791
v 0.251181 0.000000 -0.881060
v 0.215156 0.000000 -0.921615
v 0.171260 0.000000 -0.954897
v 0.121179 0.000000 -0.979628
v 0.066838 0.000000 -0.994858
v 0.212132 -0.212132 -0.732376
v 0.007301 -0.007301 -1.000000
v 0.208196 -0.208196 -0.784587
v 0.196540 -0.196540 -0.834791
v 0.177612 -0.177612 -0.881060
v 0.152138 -0.152138 -0.921615
v 0.121099 -0.121099 -0.954897
v 0.085687 -0.085687 -0.979628
v 0.047262 -0.047262 -0.994858
v -0.000000 -0.300000 -0.732376
v -0.000000 -0.010326 -1.000000
v -0.000000 -0.294434 -0.784587
v -0.000000 -0.277950 -0.834791
v -0.000000 -0.251181 -0.881060
v -0.000000 -0.215156 -0.921615
v -0.000000 -0.171260 -0.954897
v -0.000000 -0.121179 -0.979628
v -0.000000 -0.066838 -0.994858
v -0.212132 -0.212132 -0.732376
v -0.007301 -0.007301 -1.000000
v -0.208196 -0.208196 -0.784587
v -0.196540 -0.196540 -0.834791
v -0.177612 -0.177612 -0.881060
v -0.152139 -0.152138 -0.921615
v -0.121099 -0.121099 -0.954897
v -0.085687 -0.085687 -0.979628
v -0.047262 -0.047262 -0.994858
v -0.300000 0.000000 -0.732376
v -0.010326 0.000000 -1.000000
v -0.294434 0.000000 -0.784587
v -0.277950 0.000000 -0.834791
v -0.251181 0.000000 -0.881060
v -0.215156 0.000000 -0.921615
v -0.171260 0.000000 -0.954897
v -0.121179 0.000000 -0.979628
v -0.066838 0.000000 -0.994858
v -0.212132 0.212132 -0.732376
v -0.007301 0.007301 -1.000000
v -0.208196 0.208196 -0.784587
v -0.196540 0.196540 -0.834791
v -0.177612 0.177612 -0.881060
v -0.152139 0.152139 -0.921615
v -0.121099 0.121099 -0.954897
v -0.085687 0.085687 -0.979628
v -0.047262 0.047262 -0.994858
vt 1.000000 0.566906
vt 1.000000 0.930810
vt 0.875000 0.930810
vt 0.875000 0.566906
vt 0.625000 0.566906
vt 0.625000 0.930810
vt 0.500000 0.930810
vt 0.500000 0.566906
vt 0.375000 0.930810
vt 0.375000 0.566906
vt 0.250000 0.930810
vt 0.250000 0.566906
vt 0.125000 0.930810
vt 0.125000 0.566906
vt 0.750000 0.930810
vt 0.750000 0.566906
vt 0.000000 0.930810
vt 0.000000 0.566906
vt 0.998801 0.944308
vt 0.876199 0.944308
vt 0.995249 0.957288
vt 0.879751 0.957288
vt 0.989482 0.969250
vt 0.885518 0.969250
vt 0.981721 1.000000
vt 0.893279 1.000000
vt 0.394889 0.429985
vt 0.274817 0.479721
vt 0.250000 0.383492
vt 0.344393 0.344393
vt 0.250000 0.342059
vt 0.315096 0.315096
vt 0.250000 0.297103
vt 0.283306 0.283306
vt 0.250000 0.250349
vt 0.250247 0.250247
vt 0.873801 0.944308
vt 0.751199 0.944308
vt 0.870249 0.957288
vt 0.754751 0.957288
vt 0.864482 0.969250
vt 0.760518 0.969250
vt 0.856721 1.000000
vt 0.768279 1.000000
vt 0.479721 0.274817
vt 0.429985 0.394889
vt 0.383492 0.250000
vt 0.342059 0.250000
vt 0.297102 0.250000
vt 0.250349 0.250000
vt 0.748801 0.944308
vt 0.626199 0.944308
vt 0.745249 0.957288
vt 0.629751 0.957288
vt 0.739482 0.969250
vt 0.635518 0.969250
vt 0.731721 1.000000
vt 0.643279 1.000000
vt 0.429985 0.105111
vt 0.479721 0.225183
vt 0.344393 0.155607
vt 0.315096 0.184904
vt 0.283306 0.216694
vt 0.250247 0.249753
vt 0.623801 0.944308
vt 0.501199 0.944308
vt 0.620249 0.957288
vt 0.504751 0.957288
vt 0.614482 0.969250
vt 0.510518 0.969250
vt 0.606721 1.000000
vt 0.518279 1.000000
vt 0.274817 0.020279
vt 0.394889 0.070015
vt 0.250000 0.116508
vt 0.250000 0.157941
vt 0.250000 0.202898
vt 0.250000 0.249651
vt 0.498801 0.944308
vt 0.376199 0.944308
vt 0.495249 0.957288
vt 0.379751 0.957288
vt 0.489482 0.969250
vt 0.385518 0.969250
vt 0.481721 1.000000
vt 0.393279 1.000000
vt 0.105111 0.070015
vt 0.225183 0.020279
vt 0.155607 0.155607
vt 0.184904 0.184904
vt 0.216694 0.216694
vt 0.249753 0.249753
vt 0.373801 0.944308
vt 0.251199 0.944308
vt 0.370249 0.957288
vt 0.254751 0.957288
vt 0.364482 0.969250
vt 0.260518 0.969250
vt 0.356721 1.000000
vt 0.268279 1.000000
vt 0.020279 0.225183
vt 0.070015 0.105111
vt 0.116508 0.250000
vt 0.157941 0.250000
vt 0.202898 0.250000
vt 0.249651 0.250000
vt 0.248801 0.944308
vt 0.126199 0.944308
vt 0.245249 0.957288
vt 0.129751 0.957288
vt 0.239482 0.969250
vt 0.135518 0.969250
vt 0.231721 1.000000
vt 0.143279 1.000000
vt 0.070015 0.394889
vt 0.020279 0.274817
vt 0.155607 0.344393
vt 0.184904 0.315096
vt 0.216694 0.283306
vt 0.249753 0.250247
vt 0.123801 0.944308
vt 0.001199 0.944308
vt 0.120249 0.957288
vt 0.004751 0.957288
vt 0.114482 0.969250
vt 0.010518 0.969250
vt 0.106721 1.000000
vt 0.018279 1.000000
vt 0.225183 0.479721
vt 0.105111 0.429985
vt 0.876160 0.553853
vt 0.998840 0.553853
vt 0.879594 0.541302
vt 0.995406 0.541302
vt 0.885171 0.529735
vt 0.989829 0.529735
vt 0.892676 0.500000
vt 0.982324 0.500000
vt 0.773997 0.480060
vt 0.895708 0.429646
vt 0.846879 0.346879
vt 0.750000 0.387008
vt 0.818549 0.318549
vt 0.750000 0.346943
vt 0.787809 0.287809
vt 0.750000 0.303471
vt 0.755841 0.255841
vt 0.750000 0.258260
vt 0.751160 0.553853
vt 0.873840 0.553853
vt 0.754594 0.541302
vt 0.870406 0.541302
vt 0.760171 0.529735
vt 0.864829 0.529735
vt 0.767676 0.500000
vt 0.857324 0.500000
vt 0.929646 0.395708
vt 0.980060 0.273997
vt 0.887008 0.250000
vt 0.846943 0.250000
vt 0.803470 0.250000
vt 0.758260 0.250000
vt 0.626160 0.553853
vt 0.748840 0.553853
vt 0.629594 0.541302
vt 0.745406 0.541302
vt 0.635171 0.529735
vt 0.739829 0.529735
vt 0.642676 0.500000
vt 0.732324 0.500000
vt 0.980060 0.226003
vt 0.929646 0.104292
vt 0.846879 0.153121
vt 0.818549 0.181451
vt 0.787809 0.212191
vt 0.755841 0.244159
vt 0.501160 0.553853
vt 0.623840 0.553853
vt 0.504594 0.541302
vt 0.620406 0.541302
vt 0.510171 0.529735
vt 0.614829 0.529735
vt 0.517676 0.500000
vt 0.607324 0.500000
vt 0.895708 0.070354
vt 0.773997 0.019940
vt 0.750000 0.112992
vt 0.750000 0.153057
vt 0.750000 0.196529
vt 0.750000 0.241740
vt 0.376160 0.553853
vt 0.498840 0.553853
vt 0.379594 0.541302
vt 0.495406 0.541302
vt 0.385171 0.529735
vt 0.489829 0.529735
vt 0.392676 0.500000
vt 0.482324 0.500000
vt 0.726003 0.019940
vt 0.604292 0.070354
vt 0.653121 0.153121
vt 0.681451 0.181451
vt 0.712191 0.212191
vt 0.744159 0.244159
vt 0.251160 0.553853
vt 0.373840 0.553853
vt 0.254594 0.541302
vt 0.370406 0.541302
vt 0.260171 0.529735
vt 0.364829 0.529735
vt 0.267676 0.500000
vt 0.357324 0.500000
vt 0.570354 0.104292
vt 0.519940 0.226003
vt 0.612992 0.250000
vt 0.653057 0.250000
vt 0.696529 0.250000
vt 0.741740 0.250000
vt 0.126160 0.553853
vt 0.248840 0.553853
vt 0.129594 0.541302
vt 0.245406 0.541302
vt 0.135171 0.529735
vt 0.239829 0.529735
vt 0.142676 0.500000
vt 0.232324 0.500000
vt 0.519940 0.273997
vt 0.570354 0.395708
vt 0.653121 0.346879
vt 0.681451 0.318549
vt 0.712191 0.287809
vt 0.744159 0.255841
vt 0.001160 0.553853
vt 0.123840 0.553853
vt 0.004594 0.541302
vt 0.120406 0.541302
vt 0.010171 0.529735
vt 0.114829 0.529735
vt 0.017676 0.500000
vt 0.107324 0.500000
vt 0.604292 0.429646
vt 0.726003 0.480060
vn 0.3827 0.9239 0.0000
vn 0.3827 -0.9239 -0.0000
vn -0.3827 -0.9239 -0.0000
vn -0.9239 -0.3827 -0.0000
vn -0.9239 0.3827 0.0000
vn 0.9239 0.3827 0.0000
vn 0.9239 -0.3827 -0.0000
vn -0.3827 0.9239 0.0000
vn 0.3808 0.9194 0.0980
vn 0.3662 0.8841 0.2903
vn 0.3375 0.8148 0.4714
vn 0.2958 0.7142 0.6344
vn 0.2428 0.5861 0.7730
vn 0.1804 0.4355 0.8819
vn 0.1111 0.2682 0.9569
vn 0.0375 0.0906 0.9952
vn 0.9194 0.3808 0.0980
vn 0.8841 0.3662 0.2903
vn 0.8148 0.3375 0.4714
vn 0.7142 0.2958 0.6344
vn 0.5861 0.2428 0.7730
vn 0.4355 0.1804 0.8819
vn 0.2682 0.1111 0.9569
vn 0.0906 0.0375 0.9952
vn 0.9194 -0.3808 0.0980
vn 0.8841 -0.3662 0.2903
vn 0.8148 -0.3375 0.4714
vn 0.7142 -0.2958 0.6344
vn 0.5861 -0.2428 0.7730
vn 0.4355 -0.1804 0.8819
vn 0.2682 -0.1111 0.9569
vn 0.0906 -0.0375 0.9952
vn 0.3808 -0.9194 0.0980
vn 0.3662 -0.8841 0.2903
vn 0.3375 -0.8148 0.4714
vn 0.2958 -0.7142 0.6344
vn 0.2428 -0.5861 0.7730
vn 0.1804 -0.4355 0.8819
vn 0.1111 -0.2682 0.9569
vn 0.0375 -0.0906 0.9952
vn -0.3808 -0.9194 0.0980
vn -0.3662 -0.8841 0.2903
vn -0.3375 -0.8148 0.4714
vn -0.2958 -0.7142 0.6344
vn -0.2428 -0.5861 0.7730
vn -0.1804 -0.4355 0.8819
vn -0.1111 -0.2682 0.9569
vn -0.0375 -0.0906 0.9952
vn -0.9194 -0.3808 0.0980
vn -0.8841 -0.3662 0.2903
vn -0.8148 -0.3375 0.4714
vn -0.7142 -0.2958 0.6344
vn -0.5861 -0.2428 0.7730
vn -0.4355 -0.1804 0.8819
vn -0.2682 -0.1111 0.9569
vn -0.0906 -0.0375 0.9952
vn -0.9194 0.3808 0.0980
vn -0.8841 0.3662 0.2903
vn -0.8148 0.3375 0.4714
vn -0.7142 0.2958 0.6344
vn -0.5861 0.2428 0.7730
vn -0.4355 0.1804 0.8819
vn -0.2682 0.1111 0.9569
vn -0.0906 0.0375 0.9952
vn -0.3808 0.9194 0.0980
vn -0.3662 0.8841 0.2903
vn -0.3375 0.8148 0.4714
vn -0.2958 0.7142 0.6344
vn -0.2428 0.5861 0.7730
vn -0.1804 0.4355 0.8819
vn -0.1111 0.2682 0.9569
vn -0.0375 0.0906 0.9952
vn 0.0000 0.0000 1.0000
vn 0.3808 0.9194 -0.0980
vn 0.3662 0.8841 -0.2903
vn 0.3375 0.8148 -0.4714
vn 0.2958 0.7142 -0.6344
vn 0.2428 0.5861 -0.7730
vn 0.1804 0.4355 -0.8819
vn 0.1111 0.2682 -0.9569
vn 0.0375 0.0906 -0.9952
vn 0.9194 0.3808 -0.0980
vn 0.8841 0.3662 -0.2903
vn 0.8148 0.3375 -0.4714
vn 0.7142 0.2958 -0.6344
vn 0.5861 0.2428 -0.7730
vn 0.4355 0.1804 -0.8819
vn 0.2682 0.1111 -0.9569
vn 0.0906 0.0375 -0.9952
vn 0.9194 -0.3808 -0.0980
vn 0.8841 -0.3662 -0.2903
vn 0.8148 -0.3375 -0.4714
vn 0.7142 -0.2958 -0.6344
vn 0.5861 -0.2428 -0.7730
vn 0.4355 -0.1804 -0.8819
vn 0.2682 -0.1111 -0.9569
vn 0.0906 -0.0375 -0.9952
vn 0.3808 -0.9194 -0.0980
vn 0.3662 -0.8841 -0.2903
vn 0.3375 -0.8148 -0.4714
vn 0.2958 -0.7142 -0.6344
vn 0.2428 -0.5861 -0.7730
vn 0.1804 -0.4355 -0.8819
vn 0.1111 -0.2682 -0.9569
vn 0.0375 -0.0906 -0.9952
vn -0.3808 -0.9194 -0.0980
vn -0.3662 -0.8841 -0.2903
vn -0.3375 -0.8148 -0.4714
vn -0.2958 -0.7142 -0.6344
vn -0.2428 -0.5861 -0.7730
vn -0.1804 -0.4355 -0.8819
vn -0.1111 -0.2682 -0.9569
vn -0.0375 -0.0906 -0.9952
vn -0.9194 -0.3808 -0.0980
vn -0.8841 -0.3662 -0.2903
vn -0.8148 -0.3375 -0.4714
vn -0.7142 -0.2958 -0.6344
vn -0.5861 -0.2428 -0.7730
vn -0.4355 -0.1804 -0.8819
vn -0.2682 -0.1111 -0.9569
vn -0.0906 -0.0375 -0.9952
vn -0.9194 0.3808 -0.0980
vn -0.8841 0.3662 -0.2903
vn -0.8148 0.3375 -0.4714
vn -0.7142 0.2958 -0.6344
vn -0.5861 0.2428 -0.7730
vn -0.4355 0.1804 -0.8819
vn -0.2682 0.1111 -0.9569
vn -0.0906 0.0375 -0.9952
vn -0.3808 0.9194 -0.0980
vn -0.3662 0.8841 -0.2903
vn -0.3375 0.8148 -0.4714
vn -0.2958 0.7142 -0.6344
vn -0.2428 0.5861 -0.7730
vn -0.1804 0.4355 -0.8819
vn -0.1111 0.2682 -0.9569
vn -0.0375 0.0906 -0.9952
vn 0.0000 0.0000 -1.0000
usemtl None
s off
f 74/1/1 2/2/1 11/3/1 82/4/1
f 100/5/2 29/6/2 38/7/2 109/8/2
f 109/8/3 38/7/3 47/9/3 118/10/3
f 118/10/4 47/9/4 56/11/4 127/12/4
f 127/12/5 56/11/5 65/13/5 136/14/5
f 82/4/6 11/3/6 20/15/6 91/16/6
f 91/16/7 20/15/7 29/6/7 100/5/7
f 136/14/8 65/13/8 2/17/8 74/18/8
f 11/3/9 2/2/9 9/19/9 18/20/9
f 18/20/10 9/19/10 8/21/10 17/22/10
f 17/22/11 8/21/11 7/23/11 16/24/11
f 16/24/12 7/23/12 6/25/12 15/26/12
f 15/27/13 6/28/13 5/29/13 14/30/13
f 14/30/14 5/29/14 4/31/14 13/32/14
f 13/32/15 4/31/15 3/33/15 12/34/15
f 12/34/16 3/33/16 1/35/16 10/36/16
f 20/15/17 11/3/17 18/37/17 27/38/17
f 27/38/18 18/37/18 17/39/18 26/40/18
f 26/40/19 17/39/19 16/41/19 25/42/19
f 25/42/20 16/41/20 15/43/20 24/44/20
f 24/45/21 15/46/21 14/30/21 23/47/21
f 23/47/22 14/30/22 13/32/22 22/48/22
f 22/48/23 13/32/23 12/34/23 21/49/23
f 21/49/24 12/34/24 10/36/24 19/50/24
f 29/6/25 20/15/25 27/51/25 36/52/25
f 36/52/26 27/51/26 26/53/26 35/54/26
f 35/54/27 26/53/27 25/55/27 34/56/27
f 34/56/28 25/55/28 24/57/28 33/58/28
f 33/59/29 24/60/29 23/47/29 32/61/29
f 32/61/30 23/47/30 22/48/30 31/62/30
f 31/62/31 22/48/31 21/49/31 30/63/31
f 30/63/32 21/49/32 19/50/32 28/64/32
f 38/7/33 29/6/33 36/65/33 45/66/33
f 45/66/34 36/65/34 35/67/34 44/68/34
f 44/68/35 35/67/35 34/69/35 43/70/35
f 43/70/36 34/69/36 33/71/36 42/72/36
f 42/73/37 33/74/37 32/61/37 41/75/37
f 41/75/38 32/61/38 31/62/38 40/76/38
f 40/76/39 31/62/39 30/63/39 39/77/39
f 39/77/40 30/63/40 28/64/40 37/78/40
f 47/9/41 38/7/41 45/79/41 54/80/41
f 54/80/42 45/79/42 44/81/42 53/82/42
f 53/82/43 44/81/43 43/83/43 52/84/43
f 52/84/44 43/83/44 42/85/44 51/86/44
f 51/87/45 42/88/45 41/75/45 50/89/45
f 50/89/46 41/75/46 40/76/46 49/90/46
f 49/90/47 40/76/47 39/77/47 48/91/47
f 48/91/48 39/77/48 37/78/48 46/92/48
f 56/11/49 47/9/49 54/93/49 63/94/49
f 63/94/50 54/93/50 53/95/50 62/96/50
f 62/96/51 53/95/51 52/97/51 61/98/51
f 61/98/52 52/97/52 51/99/52 60/100/52
f 60/101/53 51/102/53 50/89/53 59/103/53
f 59/103/54 50/89/54 49/90/54 58/104/54
f 58/104/55 49/90/55 48/91/55 57/105/55
f 57/105/56 48/91/56 46/92/56 55/106/56
f 65/13/57 56/11/57 63/107/57 72/108/57
f 72/108/58 63/107/58 62/109/58 71/110/58
f 71/110/59 62/109/59 61/111/59 70/112/59
f 70/112/60 61/111/60 60/113/60 69/114/60
f 69/115/61 60/116/61 59/103/61 68/117/61
f 68/117/62 59/103/62 58/104/62 67/118/62
f 67/118/63 58/104/63 57/105/63 66/119/63
f 66/119/64 57/105/64 55/106/64 64/120/64
f 2/17/65 65/13/65 72/121/65 9/122/65
f 9/122/66 72/121/66 71/123/66 8/124/66
f 8/124/67 71/123/67 70/125/67 7/126/67
f 7/126/68 70/125/68 69/127/68 6/128/68
f 6/129/69 69/130/69 68/117/69 5/29/69
f 5/29/70 68/117/70 67/118/70 4/31/70
f 4/31/71 67/118/71 66/119/71 3/33/71
f 3/33/72 66/119/72 64/120/72 1/35/72
f 10/36/73 1/35/73 64/120/73 55/106/73 46/92/73 37/78/73 28/64/73 19/50/73
f 74/1/74 82/4/74 84/131/74 81/132/74
f 81/132/75 84/131/75 85/133/75 80/134/75
f 80/134/76 85/133/76 86/135/76 79/136/76
f 79/136/77 86/135/77 87/137/77 78/138/77
f 78/139/78 87/140/78 88/141/78 77/142/78
f 77/142/79 88/141/79 89/143/79 76/144/79
f 76/144/80 89/143/80 90/145/80 75/146/80
f 75/146/81 90/145/81 83/147/81 73/148/81
f 82/4/82 91/16/82 93/149/82 84/150/82
f 84/150/83 93/149/83 94/151/83 85/152/83
f 85/152/84 94/151/84 95/153/84 86/154/84
f 86/154/85 95/153/85 96/155/85 87/156/85
f 87/157/86 96/158/86 97/159/86 88/141/86
f 88/141/87 97/159/87 98/160/87 89/143/87
f 89/143/88 98/160/88 99/161/88 90/145/88
f 90/145/89 99/161/89 92/162/89 83/147/89
f 91/16/90 100/5/90 102/163/90 93/164/90
f 93/164/91 102/163/91 103/165/91 94/166/91
f 94/166/92 103/165/92 104/167/92 95/168/92
f 95/168/93 104/167/93 105/169/93 96/170/93
f 96/171/94 105/172/94 106/173/94 97/159/94
f 97/159/95 106/173/95 107/174/95 98/160/95
f 98/160/96 107/174/96 108/175/96 99/161/96
f 99/161/97 108/175/97 101/176/97 92/162/97
f 100/5/98 109/8/98 111/177/98 102/178/98
f 102/178/99 111/177/99 112/179/99 103/180/99
f 103/180/100 112/179/100 113/181/100 104/182/100
f 104/182/101 113/181/101 114/183/101 105/184/101
f 105/185/102 114/186/102 115/187/102 106/173/102
f 106/173/103 115/187/103 116/188/103 107/174/103
f 107/174/104 116/188/104 117/189/104 108/175/104
f 108/175/105 117/189/105 110/190/105 101/176/105
f 109/8/106 118/10/106 120/191/106 111/192/106
f 111/192/107 120/191/107 121/193/107 112/194/107
f 112/194/108 121/193/108 122/195/108 113/196/108
f 113/196/109 122/195/109 123/197/109 114/198/109
f 114/199/110 123/200/110 124/201/110 115/187/110
f 115/187/111 124/201/111 125/202/111 116/188/111
f 116/188/112 125/202/112 126/203/112 117/189/112
f 117/189/113 126/203/113 119/204/113 110/190/113
f 118/10/114 127/12/114 129/205/114 120/206/114
f 120/206/115 129/205/115 130/207/115 121/208/115
f 121/208/116 130/207/116 131/209/116 122/210/116
f 122/210/117 131/209/117 132/211/117 123/212/117
f 123/213/118 132/214/118 133/215/118 124/201/118
f 124/201/119 133/215/119 134/216/119 125/202/119
f 125/202/120 134/216/120 135/217/120 126/203/120
f 126/203/121 135/217/121 128/218/121 119/204/121
f 127/12/122 136/14/122 138/219/122 129/220/122
f 129/220/123 138/219/123 139/221/123 130/222/123
f 130/222/124 139/221/124 140/223/124 131/224/124
f 131/224/125 140/223/125 141/225/125 132/226/125
f 132/227/126 141/228/126 142/229/126 133/215/126
f 133/215/127 142/229/127 143/230/127 134/216/127
f 134/216/128 143/230/128 144/231/128 135/217/128
f 135/217/129 144/231/129 137/232/129 128/218/129
f 136/14/130 74/18/130 81/233/130 138/234/130
f 138/234/131 81/233/131 80/235/131 139/236/131
f 139/236/132 80/235/132 79/237/132 140/238/132
f 140/238/133 79/237/133 78/239/133 141/240/133
f 141/241/134 78/242/134 77/142/134 142/229/134
f 142/229/135 77/142/135 76/144/135 143/230/135
f 143/230/136 76/144/136 75/146/136 144/231/136
f 144/231/137 75/146/137 73/148/137 137/232/137
f 73/148/138 83/147/138 92/162/138 101/176/138 110/190/138 119/204/138 128/218/138 137/232/138
