# Blender v2.82 (sub 7) OBJ File: ''
# www.blender.org
mtllib mex_morebeds_hammock.mtl
o Cylinder
v 0.992463 0.172014 -0.450000
v 0.992463 0.172014 0.450000
v 0.880608 0.038251 -0.450000
v 0.880608 0.038251 0.450000
v 0.763702 -0.086615 -0.450000
v 0.763702 -0.086615 0.450000
v 0.600078 -0.191488 -0.450000
v 0.600078 -0.191488 0.450000
v 0.383245 -0.267051 -0.450000
v 0.383245 -0.267051 0.450000
v 0.132471 -0.306589 -0.450000
v 0.132471 -0.306589 0.450000
v -0.129962 -0.306589 -0.450000
v -0.129962 -0.306589 0.450000
v -0.380736 -0.267051 -0.450000
v -0.380736 -0.267051 0.450000
v -0.597568 -0.191488 -0.450000
v -0.597568 -0.191488 0.450000
v -0.761193 -0.086615 -0.450000
v -0.761193 -0.086615 0.450000
v -0.878098 0.038251 -0.450000
v -0.878098 0.038251 0.450000
v -0.989953 0.172014 -0.450000
v -0.989953 0.172014 0.450000
v 0.992463 0.172014 -0.450000
v 0.992463 0.172014 0.450000
v -0.989953 0.172014 -0.450000
v -0.989953 0.172014 0.450000
v 1.145086 0.299827 -0.242844
v 1.145086 0.299827 0.242844
v -1.142577 0.299827 -0.242844
v -1.142577 0.299827 0.242844
v 1.348407 0.436260 -0.058999
v 1.348407 0.436260 0.058999
v -1.345897 0.436260 -0.058999
v -1.345897 0.436260 0.058999
v 0.992463 0.088312 -0.450000
v 0.992463 0.088312 0.450000
v 0.880608 -0.052340 -0.450000
v 0.880608 -0.052340 0.450000
v 0.763702 -0.136057 -0.450000
v 0.763702 -0.177206 0.450000
v 0.600078 -0.240931 -0.450000
v 0.600078 -0.282079 0.450000
v 0.383245 -0.316493 -0.450000
v 0.383245 -0.357642 0.450000
v 0.132471 -0.356031 -0.450000
v 0.132471 -0.397180 0.450000
v -0.129962 -0.356031 -0.450000
v -0.129962 -0.397180 0.450000
v -0.380736 -0.316493 -0.450000
v -0.380736 -0.357642 0.450000
v -0.597568 -0.240930 -0.450000
v -0.597568 -0.282079 0.450000
v -0.761193 -0.136057 -0.450000
v -0.761193 -0.177206 0.450000
v -0.878098 -0.011192 -0.450000
v -0.878098 -0.052340 0.450000
v -0.989953 0.088312 -0.450000
v -0.989953 0.088312 0.450000
v 0.992463 0.088312 -0.450000
v 0.992463 0.088312 0.450000
v -0.989953 0.088312 -0.450000
v -0.989953 0.088312 0.450000
v 1.145086 0.216125 -0.242844
v 1.145086 0.216125 0.242844
v -1.142577 0.216125 -0.242844
v -1.142577 0.216125 0.242844
v 1.348407 0.352559 -0.058999
v 1.348407 0.352559 0.058999
v -1.345897 0.352558 -0.058999
v -1.345897 0.352558 0.058999
v 1.308271 -0.509733 -0.466471
v 1.308271 0.469690 -0.016471
v 1.347242 -0.520983 -0.446986
v 1.347242 0.458440 0.003014
v 1.347242 -0.543483 -0.408014
v 1.347242 0.435940 0.041986
v 1.308271 -0.554733 -0.388529
v 1.308271 0.424690 0.061471
v 1.269299 -0.543483 -0.408014
v 1.269299 0.435940 0.041986
v 1.269299 -0.520983 -0.446986
v 1.269299 0.458440 0.003014
v 1.308403 -0.554733 0.388529
v 1.308403 0.424690 -0.061471
v 1.347374 -0.543483 0.408014
v 1.347374 0.435940 -0.041986
v 1.347374 -0.520983 0.446986
v 1.347374 0.458440 -0.003014
v 1.308403 -0.509733 0.466471
v 1.308403 0.469690 0.016471
v 1.269432 -0.520983 0.446986
v 1.269432 0.458440 -0.003014
v 1.269432 -0.543483 0.408014
v 1.269432 0.435940 -0.041986
v -1.300760 -0.509733 -0.466471
v -1.300760 0.469690 -0.016471
v -1.261789 -0.520983 -0.446986
v -1.261789 0.458440 0.003014
v -1.261789 -0.543483 -0.408014
v -1.261789 0.435940 0.041986
v -1.300760 -0.554733 -0.388529
v -1.300760 0.424690 0.061471
v -1.339731 -0.543483 -0.408014
v -1.339731 0.435940 0.041986
v -1.339731 -0.520983 -0.446986
v -1.339731 0.458440 0.003014
v -1.300628 -0.554733 0.388529
v -1.300628 0.424690 -0.061471
v -1.261656 -0.543483 0.408014
v -1.261656 0.435940 -0.041986
v -1.261656 -0.520983 0.446986
v -1.261656 0.458440 -0.003014
v -1.300628 -0.509733 0.466471
v -1.300628 0.469690 0.016471
v -1.339599 -0.520983 0.446986
v -1.339599 0.458440 -0.003014
v -1.339599 -0.543483 0.408014
v -1.339599 0.435940 -0.041986
v 0.880608 0.038251 0.150000
v 0.880608 0.038251 -0.150000
v 0.763702 -0.170210 0.150000
v 0.763702 -0.170210 -0.150000
v 0.600078 -0.275083 0.150000
v 0.600078 -0.275083 -0.150000
v 0.383245 -0.350646 0.150000
v 0.383245 -0.350646 -0.150000
v 0.132471 -0.390184 0.150000
v 0.132471 -0.390184 -0.150000
v -0.129962 -0.390184 0.150000
v -0.129962 -0.390184 -0.150000
v -0.380736 -0.350646 0.150000
v -0.380736 -0.350646 -0.150000
v -0.597568 -0.275083 0.150000
v -0.597568 -0.275083 -0.150000
v -0.761193 -0.170210 0.150000
v -0.761193 -0.170210 -0.150000
v -0.878098 0.038251 0.150000
v -0.878098 0.038251 -0.150000
v 0.880608 -0.111499 0.150000
v 0.880608 -0.111499 -0.150000
v 0.763702 -0.236365 0.150000
v 0.763702 -0.236365 -0.150000
v 0.600078 -0.341238 0.150000
v 0.600078 -0.341238 -0.150000
v 0.383245 -0.416801 0.150000
v 0.383245 -0.416801 -0.150000
v 0.132471 -0.456339 0.150000
v 0.132471 -0.456339 -0.150000
v -0.129962 -0.456339 0.150000
v -0.129962 -0.456339 -0.150000
v -0.380736 -0.416801 0.150000
v -0.380736 -0.416801 -0.150000
v -0.597568 -0.341238 0.150000
v -0.597568 -0.341238 -0.150000
v -0.761193 -0.236365 0.150000
v -0.761193 -0.236365 -0.150000
v -0.878098 -0.111499 0.150000
v -0.878098 -0.111499 -0.150000
vt 0.602950 0.588902
vt 0.553304 0.588902
vt 0.553304 0.700248
vt 0.553304 0.811594
vt 0.553304 0.922940
vt 0.602950 0.922940
vt 0.475933 0.811594
vt 0.506959 0.922940
vt 0.785225 0.811594
vt 0.724495 0.811594
vt 0.724495 0.922940
vt 0.785225 0.922940
vt 0.644017 0.811594
vt 0.644017 0.922940
vt 0.550941 0.811594
vt 0.550941 0.922940
vt 0.453538 0.811594
vt 0.453538 0.922940
vt 0.360463 0.811594
vt 0.360463 0.922940
vt 0.279985 0.811594
vt 0.279985 0.922940
vt 0.219255 0.811594
vt 0.219255 0.922940
vt 0.475933 0.811594
vt 0.553304 0.811594
vt 0.553304 0.922940
vt 0.506959 0.922940
vt 0.553304 0.588902
vt 0.602950 0.588902
vt 0.602950 0.922940
vt 0.553304 0.700248
vt 0.134350 0.856411
vt 0.134350 0.856411
vt 0.134350 0.856411
vt 0.134350 0.856411
vt 0.870130 0.856411
vt 0.870130 0.856411
vt 0.870130 0.856411
vt 0.870130 0.856411
vt 0.183565 0.579059
vt 0.126919 0.655946
vt 0.126919 0.836211
vt 0.183565 0.913097
vt 0.830757 0.925401
vt 0.887404 0.848515
vt 0.887404 0.668250
vt 0.830757 0.591363
vt 0.051456 0.724181
vt 0.051456 0.767976
vt 0.962867 0.780280
vt 0.962867 0.736484
vt 0.571884 0.588902
vt 0.571884 0.922940
vt 0.519681 0.922940
vt 0.497724 0.811594
vt 0.497724 0.700248
vt 0.519681 0.588902
vt 0.473336 0.922940
vt 0.451379 0.811594
vt 0.785225 0.811594
vt 0.785225 0.922940
vt 0.724495 0.922940
vt 0.724495 0.811594
vt 0.644017 0.922940
vt 0.644017 0.811594
vt 0.550941 0.922940
vt 0.550941 0.811594
vt 0.453538 0.922940
vt 0.453538 0.811594
vt 0.360463 0.922940
vt 0.360463 0.811594
vt 0.279985 0.922940
vt 0.279985 0.811594
vt 0.219255 0.922940
vt 0.219255 0.811594
vt 0.451379 0.811594
vt 0.473336 0.922940
vt 0.519681 0.922940
vt 0.497724 0.811594
vt 0.534953 0.588902
vt 0.497724 0.700248
vt 0.571884 0.922940
vt 0.571884 0.588902
vt 0.134350 0.825345
vt 0.134350 0.825345
vt 0.134350 0.825345
vt 0.134350 0.825345
vt 0.870130 0.825345
vt 0.870130 0.825345
vt 0.870130 0.825345
vt 0.870130 0.825345
vt 0.183565 0.579059
vt 0.183565 0.913097
vt 0.126919 0.836211
vt 0.126919 0.655946
vt 0.830757 0.925401
vt 0.830757 0.591363
vt 0.887404 0.668250
vt 0.887404 0.848515
vt 0.051456 0.767976
vt 0.051456 0.724181
vt 0.962867 0.736484
vt 0.962867 0.780280
vt 0.360463 0.693451
vt 0.279985 0.721496
vt 0.279985 0.687873
vt 0.360463 0.659828
vt 0.830806 0.857094
vt 0.906269 0.907732
vt 0.906269 0.876666
vt 0.830806 0.826028
vt 0.644017 0.693451
vt 0.724495 0.721496
vt 0.724495 0.703145
vt 0.644017 0.675100
vt 0.906269 0.907732
vt 0.830806 0.857094
vt 0.830806 0.826028
vt 0.906269 0.876666
vt 0.724495 0.721496
vt 0.644017 0.693451
vt 0.644017 0.659828
vt 0.724495 0.687873
vt 0.219255 0.760420
vt 0.279985 0.721496
vt 0.279985 0.703145
vt 0.219255 0.742069
vt 0.219255 0.760420
vt 0.219255 0.726797
vt 0.550941 0.678776
vt 0.550941 0.660425
vt 0.550941 0.678776
vt 0.550941 0.645153
vt 0.828615 0.806764
vt 0.828615 0.773141
vt 0.175865 0.806764
vt 0.175865 0.788414
vt 0.650389 0.665789
vt 0.602950 0.588902
vt 0.571884 0.588902
vt 0.619322 0.665789
vt 0.828615 0.806764
vt 0.828615 0.773141
vt 0.175865 0.806764
vt 0.175865 0.773141
vt 0.453538 0.678776
vt 0.453538 0.660425
vt 0.602950 0.922940
vt 0.650389 0.846054
vt 0.619322 0.846054
vt 0.571884 0.922940
vt 0.453538 0.678776
vt 0.453538 0.645153
vt 0.650389 0.846054
vt 0.602950 0.922940
vt 0.571884 0.922940
vt 0.619322 0.846054
vt 0.785225 0.760420
vt 0.785225 0.742069
vt 0.602950 0.588902
vt 0.650389 0.665789
vt 0.619323 0.665789
vt 0.571884 0.588902
vt 0.785225 0.760420
vt 0.785225 0.726797
vt 0.360463 0.693451
vt 0.360463 0.675100
vt 0.656732 0.738945
vt 0.656732 0.782741
vt 0.625666 0.782741
vt 0.625666 0.738945
vt 0.701026 0.777819
vt 0.701026 0.734024
vt 0.669960 0.734024
vt 0.669960 0.777819
vt 0.134301 0.866938
vt 0.058838 0.917575
vt 0.058838 0.886509
vt 0.134301 0.835871
vt 0.053916 0.927418
vt 0.129380 0.876781
vt 0.129380 0.845715
vt 0.053916 0.896352
vt 0.773255 0.047241
vt 0.773255 0.410758
vt 0.787719 0.406582
vt 0.787719 0.043066
vt 0.606585 0.041267
vt 0.970101 0.208286
vt 0.961750 0.222750
vt 0.598234 0.055731
vt 0.787719 0.034715
vt 0.787719 0.398231
vt 0.773255 0.394056
vt 0.773255 0.030540
vt 0.758791 0.398231
vt 0.758791 0.034715
vt 0.787719 0.200903
vt 0.773255 0.193671
vt 0.758791 0.200903
vt 0.758791 0.215368
vt 0.773255 0.222600
vt 0.787719 0.215368
vt 0.598234 0.055731
vt 0.961750 0.222750
vt 0.970101 0.208286
vt 0.606585 0.041267
vt 0.758791 0.043066
vt 0.758791 0.406582
vt 0.773255 0.026652
vt 0.787719 0.033884
vt 0.787719 0.048349
vt 0.773255 0.055581
vt 0.758791 0.048349
vt 0.758791 0.033884
vt 0.773304 0.030540
vt 0.773304 0.394056
vt 0.787768 0.398231
vt 0.787768 0.034715
vt 0.598234 0.358603
vt 0.961750 0.191584
vt 0.970101 0.206048
vt 0.606585 0.373067
vt 0.787768 0.043066
vt 0.787768 0.406582
vt 0.773304 0.410758
vt 0.773304 0.047241
vt 0.758840 0.406582
vt 0.758840 0.043066
vt 0.787768 0.184201
vt 0.773304 0.176969
vt 0.758840 0.184201
vt 0.758840 0.198666
vt 0.773304 0.205898
vt 0.787768 0.198666
vt 0.606585 0.373067
vt 0.970101 0.206048
vt 0.961750 0.191584
vt 0.598234 0.358603
vt 0.758840 0.034715
vt 0.758840 0.398231
vt 0.773304 0.343988
vt 0.787768 0.351220
vt 0.787768 0.365685
vt 0.773304 0.372917
vt 0.758840 0.365685
vt 0.758840 0.351220
vt 0.833506 0.035495
vt 0.833506 0.491736
vt 0.851660 0.486496
vt 0.851660 0.030255
vt 0.616428 0.075718
vt 0.979944 0.242737
vt 0.971593 0.257201
vt 0.608078 0.090182
vt 0.851660 0.019773
vt 0.851660 0.476015
vt 0.833506 0.470774
vt 0.833506 0.014533
vt 0.815352 0.476015
vt 0.815352 0.019773
vt 0.851660 0.228353
vt 0.833506 0.219276
vt 0.815352 0.228353
vt 0.815352 0.246506
vt 0.833506 0.255583
vt 0.851660 0.246506
vt 0.608078 0.090182
vt 0.971593 0.257201
vt 0.979944 0.242737
vt 0.616428 0.075718
vt 0.815352 0.030255
vt 0.815352 0.486496
vt 0.833506 0.009654
vt 0.851660 0.018731
vt 0.851660 0.036885
vt 0.833506 0.045961
vt 0.815352 0.036885
vt 0.815352 0.018731
vt 0.833567 0.014533
vt 0.833567 0.470774
vt 0.851721 0.476015
vt 0.851721 0.019773
vt 0.334931 0.651436
vt 0.698447 0.484417
vt 0.706798 0.498881
vt 0.343282 0.665900
vt 0.851721 0.030255
vt 0.851721 0.486496
vt 0.833567 0.491736
vt 0.833567 0.035495
vt 0.815414 0.486496
vt 0.815414 0.030255
vt 0.851721 0.207390
vt 0.833567 0.198314
vt 0.815414 0.207390
vt 0.815414 0.225544
vt 0.833567 0.234621
vt 0.851721 0.225544
vt 0.616428 0.407518
vt 0.979944 0.240499
vt 0.971593 0.226035
vt 0.608078 0.393054
vt 0.815414 0.019773
vt 0.815414 0.476015
vt 0.016581 0.644204
vt 0.031045 0.651436
vt 0.031045 0.665900
vt 0.016581 0.673132
vt 0.002117 0.665900
vt 0.002117 0.651436
vt 0.488609 0.588902
vt 0.451379 0.700248
vt 0.279985 0.588902
vt 0.279985 0.700248
vt 0.219255 0.700248
vt 0.219255 0.588902
vt 0.360463 0.588902
vt 0.360463 0.700248
vt 0.453538 0.588902
vt 0.453538 0.700248
vt 0.550941 0.588902
vt 0.550941 0.700248
vt 0.644017 0.588902
vt 0.644017 0.700248
vt 0.724495 0.588902
vt 0.724495 0.700248
vt 0.785225 0.588902
vt 0.785225 0.700248
vt 0.828615 0.588902
vt 0.828615 0.700248
vt 0.451379 0.700248
vt 0.506959 0.588902
vt 0.475933 0.700248
vt 0.279985 0.588902
vt 0.219255 0.588902
vt 0.219255 0.700248
vt 0.279985 0.700248
vt 0.360463 0.588902
vt 0.360463 0.700248
vt 0.453538 0.588902
vt 0.453538 0.700248
vt 0.550941 0.588902
vt 0.550941 0.700248
vt 0.644017 0.588902
vt 0.644017 0.700248
vt 0.724495 0.588902
vt 0.724495 0.700248
vt 0.785225 0.588902
vt 0.785225 0.700248
vt 0.506959 0.588902
vt 0.475933 0.700248
vn -0.7671 0.6415 0.0000
vn -0.8161 0.5724 -0.0798
vn -0.5254 0.8197 -0.2284
vn -0.3182 0.9132 -0.2545
vn -0.1502 0.9524 -0.2654
vn 0.0000 0.9633 -0.2684
vn 0.1502 0.9524 -0.2654
vn 0.3182 0.9132 -0.2545
vn 0.5254 0.8197 -0.2284
vn 0.8161 0.5724 -0.0798
vn 0.7671 0.6415 0.0000
vn 0.0000 0.0000 1.0000
vn 0.6420 0.7667 0.0000
vn -0.6420 0.7667 0.0000
vn 0.5572 0.8304 0.0000
vn -0.5572 0.8304 0.0000
vn 0.8495 -0.5276 -0.0000
vn 0.7234 -0.6773 0.1336
vn 0.5323 -0.8305 0.1638
vn 0.3235 -0.9283 0.1831
vn 0.1529 -0.9696 0.1912
vn 0.0000 -0.9811 0.1935
vn -0.1529 -0.9696 0.1912
vn -0.3235 -0.9283 0.1831
vn -0.5323 -0.8305 0.1638
vn -0.7235 -0.6773 0.1336
vn -0.8400 -0.5424 -0.0124
vn -0.6420 -0.7667 -0.0000
vn 0.6420 -0.7667 -0.0000
vn -0.5572 -0.8304 0.0000
vn 0.5572 -0.8304 -0.0000
vn 0.6707 0.0000 -0.7417
vn 0.0000 0.0000 -1.0000
vn 0.6707 0.0000 0.7417
vn -0.8051 0.0000 -0.5932
vn -0.8051 0.0000 0.5932
vn 0.8051 0.0000 0.5932
vn 0.8051 0.0000 -0.5932
vn 1.0000 0.0000 0.0000
vn -1.0000 0.0000 0.0000
vn -0.6707 0.0000 0.7417
vn -0.6707 0.0000 -0.7417
vn 0.4984 0.3620 -0.7878
vn 0.4984 -0.3620 0.7878
vn -0.4984 -0.3620 0.7878
vn 0.0000 0.8660 0.5000
vn -0.4984 0.3620 -0.7878
vn 0.0000 -0.8660 -0.5000
vn 0.4984 -0.3620 -0.7878
vn 0.4984 0.3620 0.7878
vn -0.4984 0.3620 0.7878
vn -0.0000 0.8660 -0.5000
vn -0.4984 -0.3620 -0.7878
vn -0.0000 -0.8660 0.5000
vn -0.7116 -0.6663 -0.2228
vn -0.7300 -0.6835 -0.0000
vn -0.5194 -0.8104 -0.2710
vn -0.5396 -0.8419 0.0000
vn -0.3138 -0.9005 -0.3011
vn -0.3291 -0.9443 0.0000
vn -0.1479 -0.9380 -0.3136
vn -0.1557 -0.9878 0.0000
vn 0.0000 -0.9484 -0.3171
vn 0.0000 -1.0000 0.0000
vn 0.1479 -0.9380 -0.3136
vn 0.1557 -0.9878 0.0000
vn 0.3138 -0.9005 -0.3011
vn 0.3291 -0.9443 0.0000
vn 0.5194 -0.8104 -0.2710
vn 0.5396 -0.8419 0.0000
vn 0.6530 -0.7320 -0.1945
vn 0.7300 -0.6835 -0.0000
vn 0.8161 0.5724 0.0798
vn 0.8722 0.4891 0.0000
vn 0.5254 0.8197 0.2284
vn 0.5396 0.8419 0.0000
vn 0.3182 0.9132 0.2545
vn 0.3291 0.9443 0.0000
vn 0.1502 0.9524 0.2654
vn 0.1557 0.9878 0.0000
vn 0.0000 0.9633 0.2684
vn 0.0000 1.0000 0.0000
vn -0.1502 0.9524 0.2654
vn -0.1557 0.9878 0.0000
vn -0.3182 0.9132 0.2545
vn -0.3291 0.9443 0.0000
vn -0.5254 0.8197 0.2284
vn -0.5396 0.8419 0.0000
vn -0.8161 0.5724 0.0798
vn -0.8722 0.4891 0.0000
usemtl None
s off
f 1/1/1 3/2/1 122/3/1 121/4/1 4/5/1 2/6/1
f 121/4/2 123/7/2 6/8/2 4/5/2
f 123/9/3 125/10/3 8/11/3 6/12/3
f 125/10/4 127/13/4 10/14/4 8/11/4
f 127/13/5 129/15/5 12/16/5 10/14/5
f 129/15/6 131/17/6 14/18/6 12/16/6
f 131/17/7 133/19/7 16/20/7 14/18/7
f 133/19/8 135/21/8 18/22/8 16/20/8
f 135/21/9 137/23/9 20/24/9 18/22/9
f 137/25/10 139/26/10 22/27/10 20/28/10
f 21/29/11 23/30/11 24/31/11 22/27/11 139/26/11 140/32/11
f 23/33/12 27/34/12 28/35/12 24/36/12
f 2/37/12 26/38/12 25/39/12 1/40/12
f 27/41/13 31/42/13 32/43/13 28/44/13
f 26/45/14 30/46/14 29/47/14 25/48/14
f 31/42/15 35/49/15 36/50/15 32/43/15
f 30/46/16 34/51/16 33/52/16 29/47/16
f 37/53/17 38/54/17 40/55/17 141/56/17 142/57/17 39/58/17
f 141/56/18 40/55/18 42/59/18 143/60/18
f 143/61/19 42/62/19 44/63/19 145/64/19
f 145/64/20 44/63/20 46/65/20 147/66/20
f 147/66/21 46/65/21 48/67/21 149/68/21
f 149/68/22 48/67/22 50/69/22 151/70/22
f 151/70/23 50/69/23 52/71/23 153/72/23
f 153/72/24 52/71/24 54/73/24 155/74/24
f 155/74/25 54/73/25 56/75/25 157/76/25
f 157/77/26 56/78/26 58/79/26 159/80/26
f 57/81/27 160/82/27 159/80/27 58/79/27 60/83/27 59/84/27
f 59/85/12 60/86/12 64/87/12 63/88/12
f 38/89/12 37/90/12 61/91/12 62/92/12
f 63/93/28 64/94/28 68/95/28 67/96/28
f 62/97/29 61/98/29 65/99/29 66/100/29
f 67/96/30 68/95/30 72/101/30 71/102/30
f 66/100/31 65/99/31 69/103/31 70/104/31
f 27/34/12 23/33/12 59/85/12 63/88/12
f 16/105/12 18/106/12 54/107/12 52/108/12
f 29/109/32 33/110/32 69/111/32 65/112/32
f 9/113/33 7/114/33 43/115/33 45/116/33
f 24/36/12 28/35/12 64/87/12 60/86/12
f 34/117/34 30/118/34 66/119/34 70/120/34
f 8/121/12 10/122/12 46/123/12 44/124/12
f 26/38/12 2/37/12 38/89/12 62/92/12
f 19/125/33 17/126/33 53/127/33 55/128/33
f 1/40/12 25/39/12 61/91/12 37/90/12
f 18/106/12 20/129/12 56/130/12 54/107/12
f 11/131/33 9/113/33 45/116/33 47/132/33
f 10/122/12 12/133/12 48/134/12 46/123/12
f 3/135/33 1/40/33 37/90/33 39/136/33
f 21/137/33 19/125/33 55/128/33 57/138/33
f 31/139/35 27/140/35 63/141/35 67/142/35
f 2/37/12 4/143/12 40/144/12 38/89/12
f 20/129/12 22/145/12 58/146/12 56/130/12
f 13/147/33 11/131/33 47/132/33 49/148/33
f 28/149/36 32/150/36 68/151/36 64/152/36
f 12/133/12 14/153/12 50/154/12 48/134/12
f 30/155/37 26/156/37 62/157/37 66/158/37
f 5/159/33 3/135/33 39/136/33 41/160/33
f 23/33/33 21/137/33 57/138/33 59/85/33
f 25/161/38 29/162/38 65/163/38 61/164/38
f 4/143/12 6/165/12 42/166/12 40/144/12
f 22/145/12 24/36/12 60/86/12 58/146/12
f 15/167/33 13/147/33 49/148/33 51/168/33
f 33/169/39 34/170/39 70/171/39 69/172/39
f 14/153/12 16/105/12 52/108/12 50/154/12
f 36/173/40 35/174/40 71/175/40 72/176/40
f 7/114/33 5/159/33 41/160/33 43/115/33
f 32/177/41 36/178/41 72/179/41 68/180/41
f 6/165/12 8/121/12 44/124/12 42/166/12
f 17/126/33 15/167/33 51/168/33 53/127/33
f 35/181/42 31/182/42 67/183/42 71/184/42
f 73/185/43 74/186/43 76/187/43 75/188/43
f 75/189/39 76/190/39 78/191/39 77/192/39
f 77/193/44 78/194/44 80/195/44 79/196/44
f 79/196/45 80/195/45 82/197/45 81/198/45
f 76/199/46 74/200/46 84/201/46 82/202/46 80/203/46 78/204/46
f 81/205/40 82/206/40 84/207/40 83/208/40
f 83/209/47 84/210/47 74/186/47 73/185/47
f 73/211/48 75/212/48 77/213/48 79/214/48 81/215/48 83/216/48
f 85/217/49 86/218/49 88/219/49 87/220/49
f 87/221/39 88/222/39 90/223/39 89/224/39
f 89/225/50 90/226/50 92/227/50 91/228/50
f 91/228/51 92/227/51 94/229/51 93/230/51
f 88/231/52 86/232/52 96/233/52 94/234/52 92/235/52 90/236/52
f 93/237/40 94/238/40 96/239/40 95/240/40
f 95/241/53 96/242/53 86/218/53 85/217/53
f 85/243/54 87/244/54 89/245/54 91/246/54 93/247/54 95/248/54
f 97/249/43 98/250/43 100/251/43 99/252/43
f 99/253/39 100/254/39 102/255/39 101/256/39
f 101/257/44 102/258/44 104/259/44 103/260/44
f 103/260/45 104/259/45 106/261/45 105/262/45
f 100/263/46 98/264/46 108/265/46 106/266/46 104/267/46 102/268/46
f 105/269/40 106/270/40 108/271/40 107/272/40
f 107/273/47 108/274/47 98/250/47 97/249/47
f 97/275/48 99/276/48 101/277/48 103/278/48 105/279/48 107/280/48
f 109/281/49 110/282/49 112/283/49 111/284/49
f 111/285/39 112/286/39 114/287/39 113/288/39
f 113/289/50 114/290/50 116/291/50 115/292/50
f 115/292/51 116/291/51 118/293/51 117/294/51
f 112/295/52 110/296/52 120/297/52 118/298/52 116/299/52 114/300/52
f 117/301/40 118/302/40 120/303/40 119/304/40
f 119/305/53 120/306/53 110/282/53 109/281/53
f 109/307/54 111/308/54 113/309/54 115/310/54 117/311/54 119/312/54
f 55/313/55 158/314/55 160/82/55 57/81/55
f 158/314/56 157/77/56 159/80/56 160/82/56
f 53/315/57 156/316/57 158/317/57 55/318/57
f 156/316/58 155/74/58 157/76/58 158/317/58
f 51/319/59 154/320/59 156/316/59 53/315/59
f 154/320/60 153/72/60 155/74/60 156/316/60
f 49/321/61 152/322/61 154/320/61 51/319/61
f 152/322/62 151/70/62 153/72/62 154/320/62
f 47/323/63 150/324/63 152/322/63 49/321/63
f 150/324/64 149/68/64 151/70/64 152/322/64
f 45/325/65 148/326/65 150/324/65 47/323/65
f 148/326/66 147/66/66 149/68/66 150/324/66
f 43/327/67 146/328/67 148/326/67 45/325/67
f 146/328/68 145/64/68 147/66/68 148/326/68
f 41/329/69 144/330/69 146/328/69 43/327/69
f 144/330/70 143/61/70 145/64/70 146/328/70
f 39/331/71 142/332/71 144/330/71 41/329/71
f 142/57/72 141/56/72 143/60/72 144/333/72
f 19/334/73 21/29/73 140/32/73 138/335/73
f 138/335/74 140/32/74 139/26/74 137/25/74
f 17/336/75 19/337/75 138/338/75 136/339/75
f 136/339/76 138/338/76 137/23/76 135/21/76
f 15/340/77 17/336/77 136/339/77 134/341/77
f 134/341/78 136/339/78 135/21/78 133/19/78
f 13/342/79 15/340/79 134/341/79 132/343/79
f 132/343/80 134/341/80 133/19/80 131/17/80
f 11/344/81 13/342/81 132/343/81 130/345/81
f 130/345/82 132/343/82 131/17/82 129/15/82
f 9/346/83 11/344/83 130/345/83 128/347/83
f 128/347/84 130/345/84 129/15/84 127/13/84
f 7/348/85 9/346/85 128/347/85 126/349/85
f 126/349/86 128/347/86 127/13/86 125/10/86
f 5/350/87 7/348/87 126/349/87 124/351/87
f 124/351/88 126/349/88 125/10/88 123/9/88
f 3/2/89 5/352/89 124/353/89 122/3/89
f 122/3/90 124/353/90 123/7/90 121/4/90
