# Blender v2.82 (sub 7) OBJ File: ''
# www.blender.org
mtllib mex_morebeds_npc_bed.mtl
o Cube.001
v -0.500000 0.500000 0.237980
v -0.500000 0.500000 0.386852
v 0.500000 0.500000 0.386852
v 0.500000 0.500000 0.237979
v 0.500000 -0.500000 0.237979
v 0.500000 -0.500000 0.386852
v -0.500000 -0.500000 0.386852
v -0.500000 -0.500000 0.237980
v 0.500000 -0.042104 0.237979
v -0.500000 -0.042104 0.237980
v 0.500000 -0.042104 -1.365781
v 0.464235 -0.042103 -1.365781
v 0.464235 -0.042103 0.237980
v -0.500000 -0.319611 0.237980
v 0.500000 -0.319611 0.237979
v 0.500000 -0.319611 -1.365781
v -0.500000 -0.319611 -1.365781
v -0.500000 -0.495015 -1.365781
v 0.500000 -0.495015 -1.365781
v 0.464235 0.001431 -1.365781
v 0.464235 0.001431 -0.069683
v 0.464235 0.001431 0.237980
v -0.500000 -0.042104 -1.365781
v -0.464235 -0.042103 0.237980
v -0.464236 -0.042103 -1.365781
v -0.500000 0.108868 -1.365781
v 0.500000 0.108868 -1.365781
v 0.500000 0.108868 -1.478428
v -0.500000 0.108868 -1.478428
v -0.500000 -0.495015 -1.478428
v 0.500000 -0.495015 -1.478428
v -0.464235 0.001431 0.237980
v -0.464235 0.001431 -0.069683
v -0.464236 0.001431 -1.365781
v -0.436859 0.001441 0.237980
v -0.436859 0.001441 -0.069683
v 0.436859 0.001441 -0.069683
v -0.436859 0.053878 -0.069683
v 0.436859 0.053878 -0.069683
v 0.436859 0.001441 0.237980
v -0.436859 0.053878 0.237980
v 0.436859 0.053878 0.237980
vt 0.005877 0.097724
vt 0.005877 0.027671
vt 0.317645 0.027671
vt 0.317645 0.097723
vt 0.317645 0.027671
vt 0.629412 0.027671
vt 0.629412 0.097724
vt 0.317645 0.097723
vt 0.444574 0.472168
vt 0.024163 0.472168
vt 0.024163 0.022620
vt 0.444574 0.022620
vt 0.866162 0.249731
vt 0.866162 0.319784
vt 0.554395 0.319784
vt 0.554395 0.249731
vt 0.317645 0.255781
vt 0.005877 0.255781
vt 0.629412 0.167776
vt 0.317645 0.167776
vt 0.317645 0.097724
vt 0.629412 0.097724
vt 0.677752 0.147791
vt 0.177752 0.147791
vt 0.177752 0.137363
vt 0.677752 0.137363
vt 0.000000 0.000000
vt 0.000000 0.000000
vt 0.000000 0.000000
vt 0.000000 0.000000
vt 0.000000 0.000000
vt 0.000000 0.000000
vt 0.000000 0.000000
vt 0.000000 0.000000
vt 0.629412 0.220371
vt 0.317645 0.220371
vt 0.317645 0.167776
vt 0.629412 0.167776
vt 0.838718 0.027897
vt 0.838718 0.472804
vt 0.765737 0.472804
vt 0.765737 0.027897
vt 0.962476 0.719774
vt 0.205513 0.719775
vt 0.205513 0.700558
vt 0.817262 0.700558
vt 0.962476 0.700558
vt 0.136094 0.139841
vt 0.636094 0.139841
vt 0.636094 0.150269
vt 0.136094 0.150269
vt 0.715044 0.114432
vt 0.715044 0.405996
vt 0.215044 0.405996
vt 0.215044 0.114432
vt 0.913214 0.484073
vt 0.601447 0.484073
vt 0.601447 0.451229
vt 0.913214 0.451229
vt 0.901533 0.027897
vt 0.901533 0.472804
vt 0.838718 0.472804
vt 0.838718 0.027897
vt 0.416492 0.439201
vt 0.335581 0.439201
vt 0.291564 0.439201
vt 0.467634 0.439201
vt 0.694324 0.035120
vt 0.613413 0.035120
vt 0.562272 0.035120
vt 0.738342 0.035120
vt 0.852764 0.255781
vt 0.852764 0.431851
vt 0.540997 0.431851
vt 0.540997 0.255781
vt 0.291564 0.404081
vt 0.467634 0.404081
vt 0.765685 0.134729
vt 0.589615 0.134729
vt 0.589615 0.099609
vt 0.765685 0.099609
vt 0.629412 0.220371
vt 0.941180 0.220371
vt 0.941180 0.253215
vt 0.629412 0.253215
vt 0.229198 0.617454
vt 0.978163 0.617454
vt 0.978163 0.636468
vt 0.834483 0.636468
vt 0.229198 0.636468
vt 0.896895 0.935302
vt 0.896895 0.623535
vt 0.896895 0.634685
vt 0.896895 0.924152
vt 0.868910 0.935302
vt 0.868910 0.623535
vt 0.868911 0.634685
vt 0.868911 0.924152
vt 0.963442 0.539754
vt 0.963442 0.951993
vt 0.348099 0.951993
vt 0.348099 0.539754
vt 0.881604 0.634685
vt 0.881604 0.924152
vt 0.909588 0.634685
vt 0.909588 0.924152
vt 0.552977 0.772397
vt 0.552977 0.676478
vt 0.560959 0.676478
vt 0.560959 0.772397
vt 0.135812 0.962777
vt 0.135812 0.532958
vt 0.159936 0.532958
vt 0.159936 0.962777
vt 0.552977 0.868316
vt 0.552977 0.772397
vt 0.560959 0.772397
vt 0.560959 0.868316
vt 0.537686 0.965945
vt 0.537686 0.676478
vt 0.537689 0.685013
vt 0.537689 0.957410
vt 0.881606 0.643220
vt 0.881607 0.915617
vt 0.011322 0.948415
vt 0.011322 0.518596
vt 0.152865 0.518596
vt 0.152865 0.948415
vt 0.092625 0.812652
vt 0.092625 0.964004
vt 0.068501 0.964004
vt 0.068501 0.812652
vt 0.065757 0.692280
vt 0.065757 0.540928
vt 0.089881 0.540928
vt 0.089881 0.692280
vt 0.896895 0.643220
vt 0.896895 0.915617
vt 0.610412 0.338935
vt 0.610412 0.419846
vt 0.110412 0.419846
vt 0.110412 0.338935
vt 0.540997 0.299799
vt 0.540997 0.380710
vt 0.040997 0.380710
vt 0.040997 0.299799
vn 0.0000 1.0000 0.0000
vn 1.0000 0.0000 0.0000
vn 0.0000 -0.0000 1.0000
vn 0.0000 -1.0000 0.0000
vn -0.0000 0.0000 -1.0000
vn 0.3285 0.0000 -0.9445
vn 0.4372 -0.7572 -0.4853
vn -1.0000 0.0000 0.0000
vn 0.7071 0.7071 0.0000
vn 0.3015 0.3015 -0.9045
vn 0.3031 0.2860 0.9091
vn 0.4372 0.7572 -0.4853
vn 0.9298 0.0000 0.3680
vn -0.9614 0.0000 0.2752
vn 0.5774 0.5774 -0.5774
vn 0.7072 0.7070 -0.0001
vn 0.5774 0.5772 0.5774
vn -0.7071 0.7071 0.0000
vn -0.3024 0.2859 0.9093
vn -0.3015 0.3015 -0.9045
vn 0.7071 -0.7071 -0.0000
vn -0.7071 -0.7071 -0.0000
vn -0.5774 0.5772 0.5774
vn -0.7072 0.7070 -0.0001
vn -0.5774 0.5774 -0.5773
vn -0.3016 0.3015 0.9045
vn -0.3016 0.3015 -0.9045
vn 0.3016 0.3015 -0.9045
vn -0.5774 0.5774 -0.5774
vn 0.3016 0.3015 0.9045
vn -0.5774 0.5774 0.5774
vn 0.5774 0.5774 0.5774
usemtl Material.001
s 1
f 1/1/1 2/2/1 3/3/1 4/4/1
f 5/5/2 4/6/2 3/7/2 6/8/2
f 6/9/3 3/10/3 2/11/3 7/12/3
f 7/13/4 8/14/4 5/15/4 6/16/4
f 1/1/5 4/4/5 9/17/6 10/18/7
f 7/19/8 2/20/8 1/21/8 8/22/8
f 9/23/9 11/24/9 12/25/10 13/26/11
f 8/27/5 1/28/5 10/29/7 14/30/12
f 4/31/5 5/32/5 15/33/6 9/34/6
f 5/35/5 8/36/5 14/37/12 15/38/6
f 16/39/13 17/40/14 18/41/3 19/42/3
f 13/43/11 12/44/10 20/45/15 21/46/16 22/47/17
f 23/48/18 10/49/18 24/50/19 25/51/20
f 15/52/21 14/53/22 17/54/22 16/55/21
f 26/56/18 27/57/9 28/58/9 29/59/18
f 23/60/14 11/61/13 27/62/3 26/63/3
f 17/64/14 23/65/14 26/66/3 18/67/3
f 11/68/13 16/69/13 19/70/3 27/71/3
f 30/72/5 29/73/5 28/74/5 31/75/5
f 18/67/22 26/66/18 29/76/18 30/77/22
f 27/78/9 19/79/21 31/80/21 28/81/9
f 19/82/21 18/83/22 30/84/22 31/85/21
f 25/86/20 24/87/19 32/88/23 33/89/24 34/90/25
f 11/91/9 23/92/18 25/93/20 12/94/10
f 10/95/18 9/96/9 13/97/11 24/98/19
f 33/99/24 21/100/16 20/101/15 34/102/25
f 24/98/19 13/97/11 22/103/17 32/104/23
f 12/94/10 25/93/20 34/105/25 20/106/15
f 33/107/24 32/108/23 35/109/26 36/110/27
f 37/111/28 36/112/27 38/113/29 39/114/15
f 22/115/17 21/116/16 37/117/28 40/118/30
f 21/119/16 33/120/24 36/121/27 37/122/28
f 32/104/23 22/103/17 40/123/30 35/124/26
f 41/125/31 42/126/32 39/127/15 38/128/29
f 36/129/27 35/130/26 41/131/31 38/132/29
f 40/133/30 37/134/28 39/135/15 42/136/32
f 35/124/26 40/123/30 42/137/32 41/138/31
f 14/139/22 10/140/18 23/141/18 17/142/22
f 9/143/9 15/144/21 16/145/21 11/146/9
