# Blender v2.82 (sub 7) OBJ File: ''
# www.blender.org
mtllib mex_morebeds_jungle_bed.mtl
o Cube_Cube.001
v -0.547500 -0.383760 0.397966
v -0.547741 0.309006 0.397790
v -0.547939 0.309075 0.300319
v -0.547500 -0.383760 0.299875
v 0.547500 -0.383760 0.299875
v 0.548131 0.317903 0.300167
v 0.547468 0.319083 0.398324
v 0.547500 -0.383760 0.397966
v 0.339176 0.555318 0.299435
v 0.428284 0.477673 0.299561
v 0.498239 0.400595 0.299882
v -0.488740 0.413301 0.300514
v -0.434956 0.485397 0.300901
v -0.367755 0.551517 0.301383
v -0.301878 0.667204 0.301943
v -0.164174 0.802039 0.302262
v 0.161694 0.800716 0.303054
v 0.288510 0.668121 0.299368
v -0.446509 -0.073439 0.370974
v -0.446509 -0.052557 0.370974
v -0.446509 -0.052557 -1.152967
v -0.446509 -0.073439 -1.152967
v 0.448886 -0.052557 -1.152967
v 0.448886 -0.073439 -1.152967
v 0.448886 -0.052557 0.370974
v 0.448886 -0.073439 0.370974
v 0.428762 0.477621 0.398612
v 0.339798 0.553801 0.398400
v -0.435775 0.485235 0.397514
v -0.366993 0.550630 0.399282
v 0.495486 0.400550 0.398690
v 0.286688 0.668334 0.398283
v 0.161584 0.801161 0.393688
v -0.161128 0.801795 0.392748
v -0.300702 0.667038 0.398565
v -0.486607 0.414338 0.397943
v 0.500000 -0.070322 -1.190192
v -0.500000 -0.070322 -1.190192
v -0.500000 -0.070322 0.323474
v 0.500000 -0.070322 0.323474
v 0.500000 -0.382232 0.323474
v -0.500000 -0.382232 0.323474
v -0.500000 -0.382232 -1.190192
v 0.500000 -0.382232 -1.190192
v -0.290000 -0.498760 0.088474
v -0.290000 -0.353760 0.088474
v -0.242369 -0.353760 0.115974
v -0.242369 -0.498760 0.115974
v -0.242369 -0.353760 0.170974
v -0.242369 -0.498760 0.170974
v -0.290000 -0.353760 0.198474
v -0.290000 -0.498760 0.198474
v -0.337631 -0.353760 0.170974
v -0.337631 -0.498760 0.170974
v -0.337631 -0.353760 0.115974
v -0.337631 -0.498760 0.115974
v -0.290000 -0.498760 -1.090949
v -0.290000 -0.353760 -1.090949
v -0.242369 -0.353760 -1.063449
v -0.242369 -0.498760 -1.063449
v -0.242369 -0.353760 -1.008449
v -0.242369 -0.498760 -1.008449
v -0.290000 -0.353760 -0.980949
v -0.290000 -0.498760 -0.980949
v -0.337631 -0.353760 -1.008449
v -0.337631 -0.498760 -1.008449
v -0.337631 -0.353760 -1.063449
v -0.337631 -0.498760 -1.063449
v 0.287300 -0.498760 0.088474
v 0.287300 -0.353760 0.088474
v 0.334931 -0.353760 0.115974
v 0.334931 -0.498760 0.115974
v 0.334931 -0.353760 0.170974
v 0.334931 -0.498760 0.170974
v 0.287300 -0.353760 0.198474
v 0.287300 -0.498760 0.198474
v 0.239668 -0.353760 0.170974
v 0.239668 -0.498760 0.170974
v 0.239668 -0.353760 0.115974
v 0.239668 -0.498760 0.115974
v 0.287300 -0.498760 -1.083619
v 0.287300 -0.353760 -1.083619
v 0.334931 -0.353760 -1.056119
v 0.334931 -0.498760 -1.056119
v 0.334931 -0.353760 -1.001119
v 0.334931 -0.498760 -1.001119
v 0.287300 -0.353760 -0.973619
v 0.287300 -0.498760 -0.973619
v 0.239668 -0.353760 -1.001119
v 0.239668 -0.498760 -1.001119
v 0.239668 -0.353760 -1.056119
v 0.239668 -0.498760 -1.056119
v -0.339571 -0.060881 0.307670
v -0.339571 0.086582 0.307670
v -0.339571 0.086582 -0.101412
v -0.339571 -0.060881 -0.101412
v 0.341724 0.086582 -0.101412
v 0.341724 -0.060881 -0.101412
v 0.341724 0.086582 0.307670
v 0.341724 -0.060881 0.307670
vt 0.101447 0.534446
vt 0.101559 0.970292
vt 0.162881 0.970335
vt 0.163161 0.534446
vt 0.291121 0.544289
vt 0.290938 0.985733
vt 0.229183 0.986475
vt 0.229408 0.544289
vt 0.376588 0.902637
vt 0.410676 0.872934
vt 0.437436 0.843448
vt 0.456522 0.811815
vt 0.456281 0.543399
vt 0.037396 0.543399
vt 0.037228 0.808438
vt 0.059874 0.848309
vt 0.080449 0.875889
vt 0.106156 0.901183
vt 0.131357 0.945438
vt 0.184035 0.997018
vt 0.308693 0.996512
vt 0.357206 0.945789
vt 0.004900 0.774132
vt 0.489621 0.774132
vt 0.489621 0.730710
vt 0.004900 0.730710
vt 0.436498 0.018997
vt 0.436498 0.026407
vt 0.977244 0.026407
vt 0.977244 0.018997
vt 0.418317 0.007281
vt 0.418317 0.020584
vt 0.988688 0.020584
vt 0.988688 0.007281
vt 0.969222 0.013344
vt 0.969222 0.020495
vt 0.447327 0.020495
vt 0.447327 0.013344
vt 0.783133 0.537740
vt 0.783133 0.550878
vt 0.219805 0.550878
vt 0.219805 0.537740
vt 0.620143 0.461033
vt 0.870029 0.461033
vt 0.870029 0.035733
vt 0.620143 0.035733
vt 0.955047 0.481553
vt 0.692616 0.481553
vt 0.692616 0.034900
vt 0.955047 0.034900
vt 0.256168 0.603041
vt 0.255868 0.665358
vt 0.199806 0.665437
vt 0.200198 0.603174
vt 0.120744 0.716928
vt 0.164018 0.715816
vt 0.163539 0.777407
vt 0.121260 0.777711
vt 0.179786 0.813070
vt 0.179737 0.764582
vt 0.241901 0.764610
vt 0.242103 0.813103
vt 0.204601 0.797712
vt 0.266833 0.797578
vt 0.264513 0.880999
vt 0.207492 0.881279
vt 0.468663 0.720885
vt 0.468732 0.777907
vt 0.263715 0.778405
vt 0.265632 0.721477
vt 0.204984 0.777056
vt 0.205724 0.716266
vt 0.293535 0.719926
vt 0.291619 0.776855
vt 0.265564 0.724218
vt 0.203973 0.723660
vt 0.204423 0.796897
vt 0.265213 0.797002
vt 0.187489 0.778394
vt 0.126166 0.778351
vt 0.126070 0.844620
vt 0.187366 0.843967
vt 0.204527 0.725655
vt 0.266791 0.726610
vt 0.126340 0.889223
vt 0.187123 0.889325
vt 0.408523 0.988775
vt 0.103057 0.988775
vt 0.103057 0.526401
vt 0.408523 0.526401
vt 0.484705 0.700495
vt 0.484705 0.847083
vt 0.014737 0.847083
vt 0.014737 0.700495
vt 0.020984 0.707463
vt 0.020984 0.801983
vt 0.479680 0.801983
vt 0.479680 0.707463
vt 0.122888 0.988423
vt 0.419696 0.988423
vt 0.419696 0.539155
vt 0.122888 0.539155
vt 0.474814 0.707725
vt 0.474814 0.801721
vt 0.018667 0.801721
vt 0.018667 0.707725
vt 0.017456 0.679964
vt 0.017456 0.823321
vt 0.477065 0.823321
vt 0.477065 0.679964
vt 0.245768 0.647670
vt 0.245768 0.861035
vt 0.315857 0.861035
vt 0.315857 0.647670
vt 0.286234 0.647670
vt 0.286234 0.861035
vt 0.205302 0.861035
vt 0.205302 0.647670
vt 0.315857 0.647670
vt 0.315857 0.861035
vt 0.245768 0.861035
vt 0.245768 0.647670
vt 0.175679 0.861035
vt 0.175679 0.647670
vt 0.258294 0.779248
vt 0.209757 0.807270
vt 0.161221 0.779248
vt 0.161221 0.723203
vt 0.209757 0.695180
vt 0.258294 0.723203
vt 0.205302 0.647670
vt 0.205302 0.861035
vt 0.286234 0.861035
vt 0.286234 0.647670
vt 0.175679 0.647670
vt 0.175679 0.861035
vt 0.245768 0.780923
vt 0.296628 0.751559
vt 0.296628 0.692831
vt 0.245768 0.663467
vt 0.194909 0.692831
vt 0.194909 0.751559
vt 0.217864 0.610831
vt 0.217864 0.941039
vt 0.326335 0.941039
vt 0.326335 0.610831
vt 0.280490 0.610831
vt 0.280490 0.941039
vt 0.155239 0.941039
vt 0.155239 0.610831
vt 0.326335 0.610831
vt 0.326335 0.941039
vt 0.217864 0.941039
vt 0.217864 0.610831
vt 0.109394 0.941039
vt 0.109394 0.610831
vt 0.326335 0.838561
vt 0.217864 0.901186
vt 0.109394 0.838561
vt 0.109394 0.713309
vt 0.217864 0.650684
vt 0.326335 0.713309
vt 0.155239 0.610831
vt 0.155239 0.941039
vt 0.280490 0.941039
vt 0.280490 0.610831
vt 0.109394 0.610831
vt 0.109394 0.941039
vt 0.217864 0.901186
vt 0.326335 0.838561
vt 0.326335 0.713309
vt 0.217864 0.650684
vt 0.109394 0.713309
vt 0.109394 0.838561
vt 0.211663 0.678786
vt 0.211663 0.891687
vt 0.281600 0.891687
vt 0.281600 0.678786
vt 0.252041 0.678786
vt 0.252041 0.891687
vt 0.171286 0.891687
vt 0.171286 0.678786
vt 0.281600 0.678786
vt 0.281600 0.891687
vt 0.211663 0.891687
vt 0.211663 0.678786
vt 0.141727 0.891687
vt 0.141727 0.678786
vt 0.281600 0.825614
vt 0.211663 0.865992
vt 0.141727 0.825614
vt 0.141727 0.744858
vt 0.211663 0.704480
vt 0.281600 0.744858
vt 0.171286 0.678786
vt 0.171286 0.891687
vt 0.252041 0.891687
vt 0.252041 0.678786
vt 0.141727 0.678786
vt 0.141727 0.891687
vt 0.211663 0.865992
vt 0.281600 0.825614
vt 0.281600 0.744858
vt 0.211663 0.704480
vt 0.141727 0.744858
vt 0.141727 0.825614
vt 0.152756 0.678524
vt 0.152756 0.941554
vt 0.239159 0.941554
vt 0.239159 0.678524
vt 0.202641 0.678524
vt 0.202641 0.941554
vt 0.102871 0.941554
vt 0.102871 0.678524
vt 0.239159 0.678524
vt 0.239159 0.941554
vt 0.152756 0.941554
vt 0.152756 0.678524
vt 0.066353 0.941554
vt 0.066353 0.678524
vt 0.239159 0.859924
vt 0.152756 0.909809
vt 0.066353 0.859924
vt 0.066353 0.760154
vt 0.152756 0.710270
vt 0.239159 0.760154
vt 0.102871 0.678524
vt 0.102871 0.941554
vt 0.202641 0.941554
vt 0.202641 0.678524
vt 0.066353 0.678524
vt 0.066353 0.941554
vt 0.152756 0.909809
vt 0.239159 0.859924
vt 0.239159 0.760154
vt 0.152756 0.710270
vt 0.066353 0.760154
vt 0.066353 0.859924
vt 0.182403 0.176523
vt 0.182403 0.269298
vt 0.439773 0.269298
vt 0.439773 0.176523
vt 0.020858 0.245425
vt 0.020858 0.338200
vt 0.449487 0.338200
vt 0.449487 0.245425
vt 0.439773 0.176523
vt 0.439773 0.269298
vt 0.182403 0.269298
vt 0.182403 0.176523
vt 0.469174 0.117464
vt 0.469174 0.210239
vt 0.040544 0.210239
vt 0.040544 0.117464
vt 0.035623 0.359028
vt 0.464252 0.359028
vt 0.464252 0.101658
vt 0.035623 0.101658
vt 0.449487 0.344263
vt 0.020858 0.344263
vt 0.020858 0.086894
vt 0.449487 0.086894
vt 0.187585 0.783948
vt 0.125830 0.784690
vt 0.125600 0.835945
vt 0.187764 0.835973
vt 0.140879 0.929579
vt 0.116671 0.887069
vt 0.091553 0.863188
vt 0.072991 0.837298
vt 0.050666 0.798833
vt 0.050754 0.545849
vt 0.450625 0.545849
vt 0.450613 0.802513
vt 0.431631 0.832263
vt 0.407264 0.860407
vt 0.374776 0.888227
vt 0.355382 0.930052
vt 0.309696 0.978558
vt 0.191849 0.978789
vn -1.0000 -0.0005 0.0010
vn 1.0000 -0.0004 0.0034
vn -0.0006 0.0014 -1.0000
vn 0.0000 -1.0000 -0.0000
vn -1.0000 0.0000 0.0000
vn 0.0000 0.0000 -1.0000
vn 1.0000 0.0000 0.0000
vn 0.0000 0.0000 1.0000
vn 0.0000 1.0000 0.0000
vn 0.6537 0.7567 0.0024
vn -0.6952 0.7188 0.0037
vn 0.7482 0.6634 0.0089
vn 0.7253 0.6884 0.0050
vn 0.0030 1.0000 -0.0012
vn -0.6968 0.7170 0.0173
vn -0.8689 0.4948 0.0113
vn -0.8672 0.4979 0.0079
vn 0.9097 0.4153 0.0083
vn -0.8071 0.5905 0.0028
vn 0.5000 0.0000 -0.8660
vn 0.5000 0.0000 0.8660
vn -0.5000 0.0000 0.8660
vn -0.5000 0.0000 -0.8660
vn -0.8496 -0.5273 -0.0117
vn -0.0003 0.0017 1.0000
usemtl Material.001
s 1
f 1/1/1 2/2/1 3/3/1 4/4/1
f 5/5/2 6/6/2 7/7/2 8/8/2
f 9/9/3 10/10/3 11/11/3 6/12/3 5/13/3 4/14/3 3/15/3 12/16/3 13/17/3 14/18/3 15/19/3 16/20/3 17/21/3 18/22/3
f 4/23/4 5/24/4 8/25/4 1/26/4
f 19/27/5 20/28/5 21/29/5 22/30/5
f 22/31/6 21/32/6 23/33/6 24/34/6
f 24/35/7 23/36/7 25/37/7 26/38/7
f 26/39/8 25/40/8 20/41/8 19/42/8
f 22/43/4 24/44/4 26/45/4 19/46/4
f 23/47/9 21/48/9 20/49/9 25/50/9
f 27/51/10 10/52/10 9/53/10 28/54/10
f 29/55/11 30/56/11 14/57/11 13/58/11
f 27/59/12 31/60/12 11/61/12 10/62/12
f 32/63/13 18/64/13 17/65/13 33/66/13
f 33/67/14 17/68/14 16/69/14 34/70/14
f 15/71/15 35/72/15 34/73/15 16/74/15
f 14/75/16 30/76/16 35/77/16 15/78/16
f 3/79/17 2/80/17 36/81/17 12/82/17
f 28/83/18 9/84/18 18/64/18 32/63/18
f 29/85/19 13/86/19 12/82/19 36/81/19
f 37/87/9 38/88/9 39/89/9 40/90/9
f 41/91/8 40/92/8 39/93/8 42/94/8
f 42/95/5 39/96/5 38/97/5 43/98/5
f 43/99/4 44/100/4 41/101/4 42/102/4
f 44/103/7 37/104/7 40/105/7 41/106/7
f 43/107/6 38/108/6 37/109/6 44/110/6
f 45/111/20 46/112/20 47/113/20 48/114/20
f 48/115/7 47/116/7 49/117/7 50/118/7
f 50/119/21 49/120/21 51/121/21 52/122/21
f 52/122/22 51/121/22 53/123/22 54/124/22
f 47/125/9 46/126/9 55/127/9 53/128/9 51/129/9 49/130/9
f 54/131/5 53/132/5 55/133/5 56/134/5
f 56/135/23 55/136/23 46/112/23 45/111/23
f 45/137/4 48/138/4 50/139/4 52/140/4 54/141/4 56/142/4
f 57/143/20 58/144/20 59/145/20 60/146/20
f 60/147/7 59/148/7 61/149/7 62/150/7
f 62/151/21 61/152/21 63/153/21 64/154/21
f 64/154/22 63/153/22 65/155/22 66/156/22
f 59/157/9 58/158/9 67/159/9 65/160/9 63/161/9 61/162/9
f 66/163/5 65/164/5 67/165/5 68/166/5
f 68/167/23 67/168/23 58/144/23 57/143/23
f 57/169/4 60/170/4 62/171/4 64/172/4 66/173/4 68/174/4
f 69/175/20 70/176/20 71/177/20 72/178/20
f 72/179/7 71/180/7 73/181/7 74/182/7
f 74/183/21 73/184/21 75/185/21 76/186/21
f 76/186/22 75/185/22 77/187/22 78/188/22
f 71/189/9 70/190/9 79/191/9 77/192/9 75/193/9 73/194/9
f 78/195/5 77/196/5 79/197/5 80/198/5
f 80/199/23 79/200/23 70/176/23 69/175/23
f 69/201/4 72/202/4 74/203/4 76/204/4 78/205/4 80/206/4
f 81/207/20 82/208/20 83/209/20 84/210/20
f 84/211/7 83/212/7 85/213/7 86/214/7
f 86/215/21 85/216/21 87/217/21 88/218/21
f 88/218/22 87/217/22 89/219/22 90/220/22
f 83/221/9 82/222/9 91/223/9 89/224/9 87/225/9 85/226/9
f 90/227/5 89/228/5 91/229/5 92/230/5
f 92/231/23 91/232/23 82/208/23 81/207/23
f 81/233/4 84/234/4 86/235/4 88/236/4 90/237/4 92/238/4
f 93/239/5 94/240/5 95/241/5 96/242/5
f 96/243/6 95/244/6 97/245/6 98/246/6
f 98/247/7 97/248/7 99/249/7 100/250/7
f 100/251/8 99/252/8 94/253/8 93/254/8
f 96/255/4 98/256/4 100/257/4 93/258/4
f 97/259/9 95/260/9 94/261/9 99/262/9
f 6/263/24 7/264/24 31/265/24 11/266/24
f 35/267/25 30/268/25 29/269/25 36/270/25 2/271/25 1/272/25 8/273/25 7/274/25 31/275/25 27/276/25 28/277/25 32/278/25 33/279/25 34/280/25
