# Blender v2.83.5 OBJ File: ''
# www.blender.org
mtllib interdimensional_altars_altar.mtl
o Cylinder
v 0.000000 -0.550000 -0.500000
v 0.353553 -0.550000 -0.353553
v 0.500000 -0.550000 0.000000
v 0.353553 -0.550000 0.353553
v -0.000000 -0.550000 0.500000
v -0.353553 -0.550000 0.353553
v -0.500000 -0.550000 -0.000000
v -0.353553 -0.550000 -0.353553
v -0.000000 -0.450000 -0.121163
v 0.000000 -0.500000 -0.500000
v 0.085675 -0.450000 -0.085675
v 0.353553 -0.500000 -0.353553
v 0.121163 -0.450000 0.000000
v 0.500000 -0.500000 0.000000
v 0.085675 -0.450000 0.085675
v 0.353553 -0.500000 0.353553
v -0.000000 -0.450000 0.121163
v -0.000000 -0.500000 0.500000
v -0.085675 -0.450000 0.085675
v -0.353553 -0.500000 0.353553
v -0.121163 -0.450000 -0.000000
v -0.500000 -0.500000 -0.000000
v -0.085675 -0.450000 -0.085675
v -0.353553 -0.500000 -0.353553
v -0.000000 -0.450000 -0.445880
v 0.315285 -0.450000 -0.315285
v 0.445880 -0.450000 0.000000
v 0.315285 -0.450000 0.315285
v -0.000000 -0.450000 0.445880
v -0.315285 -0.450000 0.315285
v -0.445880 -0.450000 -0.000000
v -0.315285 -0.450000 -0.315285
v -0.000000 0.650000 -0.121163
v 0.085675 0.650000 -0.085675
v 0.121163 0.650000 0.000000
v 0.085675 0.650000 0.085675
v -0.000000 0.650000 0.121163
v -0.085675 0.650000 0.085675
v -0.121163 0.650000 -0.000000
v -0.085675 0.650000 -0.085675
v -0.000000 0.818211 -0.130000
v -0.000000 0.726287 -0.091924
v -0.000000 0.698107 -0.049749
v 0.035178 0.938315 -0.035178
v 0.065000 0.910135 -0.065000
v 0.084927 0.867960 -0.084927
v 0.091924 0.818211 -0.091924
v 0.084927 0.768462 -0.084927
v 0.065000 0.726287 -0.065000
v 0.035178 0.698107 -0.035178
v 0.049749 0.938315 -0.000000
v 0.091924 0.910135 -0.000000
v 0.120104 0.867960 -0.000000
v 0.130000 0.818211 -0.000000
v 0.120104 0.768462 -0.000000
v 0.091924 0.726287 -0.000000
v 0.049749 0.698107 -0.000000
v 0.035178 0.938315 0.035178
v 0.065000 0.910135 0.065000
v 0.084927 0.867960 0.084927
v 0.091924 0.818211 0.091924
v 0.084927 0.768462 0.084927
v 0.065000 0.726287 0.065000
v 0.035178 0.698107 0.035178
v 0.000000 0.938315 0.049749
v -0.000000 0.910135 0.091924
v 0.000000 0.867960 0.120104
v 0.000000 0.818211 0.130000
v 0.000000 0.768462 0.120104
v -0.000000 0.726287 0.091924
v -0.000000 0.698107 0.049749
v -0.035178 0.938315 0.035178
v -0.065000 0.910135 0.065000
v -0.084927 0.867960 0.084927
v -0.091924 0.818211 0.091924
v -0.084927 0.768462 0.084927
v -0.065000 0.726287 0.065000
v -0.035178 0.698107 0.035178
v -0.049749 0.938315 -0.000000
v -0.091924 0.910135 -0.000000
v -0.120104 0.867960 -0.000000
v -0.130000 0.818211 -0.000000
v -0.120104 0.768462 -0.000000
v -0.091924 0.726287 -0.000000
v -0.049749 0.698107 -0.000000
v -0.035178 0.938315 -0.035178
v -0.065000 0.910135 -0.065000
v -0.084927 0.867960 -0.084927
v -0.091924 0.818211 -0.091924
v -0.084927 0.768462 -0.084927
v -0.065000 0.726287 -0.065000
v -0.035178 0.698107 -0.035178
v -0.000000 0.688211 -0.000000
v -0.000000 0.948211 0.000000
v -0.000000 0.938315 -0.049749
v 0.000000 0.910135 -0.091924
v -0.000000 0.867960 -0.120104
v -0.000000 0.768462 -0.120104
v 0.000000 0.678854 -0.193860
v 0.137080 0.678854 -0.137080
v 0.193860 0.678854 0.000000
v 0.137080 0.678854 0.137080
v -0.000000 0.678854 0.193860
v -0.137080 0.678854 0.137080
v -0.193860 0.678854 -0.000000
v -0.137080 0.678854 -0.137080
v 0.000000 0.688854 -0.193860
v 0.137080 0.688854 -0.137080
v 0.193860 0.688854 0.000000
v 0.137080 0.688854 0.137080
v -0.000000 0.688854 0.193860
v -0.137080 0.688854 0.137080
v -0.193860 0.688854 -0.000000
v -0.137080 0.688854 -0.137080
vt 0.125000 0.500000
vt 0.125000 0.750000
vt 0.000000 0.750000
vt 0.000000 0.500000
vt 0.250000 0.500000
vt 0.250000 0.750000
vt 0.125000 0.750000
vt 0.125000 0.500000
vt 0.000000 0.750000
vt 0.000000 0.500000
vt 0.500000 0.500000
vt 0.500000 0.750000
vt 0.375000 0.750000
vt 0.375000 0.500000
vt 0.250000 0.750000
vt 0.250000 0.500000
vt 0.500000 0.500000
vt 0.500000 0.750000
vt 0.375000 0.750000
vt 0.375000 0.500000
vt 0.250000 0.490000
vt 0.419706 0.419706
vt 0.490000 0.250000
vt 0.419706 0.080294
vt 0.250000 0.010000
vt 0.080294 0.080294
vt 0.010000 0.250000
vt 0.080294 0.419706
vt 0.493235 1.000000
vt 0.381765 1.000000
vt 0.368235 1.000000
vt 0.256765 1.000000
vt 0.243235 1.000000
vt 0.131765 1.000000
vt 0.118235 1.000000
vt 0.006765 1.000000
vt 0.493235 1.000000
vt 0.381765 1.000000
vt 0.368235 1.000000
vt 0.256765 1.000000
vt 0.243235 1.000000
vt 0.131765 1.000000
vt 0.118235 1.000000
vt 0.006765 1.000000
vt 0.353553 0.000000
vt 0.500000 0.000000
vt 0.500000 1.000000
vt 0.353553 1.000000
vt 0.250000 0.315214
vt 0.296113 0.296113
vt 0.419698 0.419698
vt 0.250000 0.489989
vt 0.315214 0.250000
vt 0.489989 0.250000
vt 0.296113 0.203887
vt 0.419698 0.080302
vt 0.250000 0.184786
vt 0.250000 0.010011
vt 0.203887 0.203887
vt 0.080302 0.080302
vt 0.184786 0.250000
vt 0.010011 0.250000
vt 0.203887 0.296113
vt 0.080302 0.419698
vt 0.364411 0.222162
vt 0.115565 0.220285
vt 0.031428 0.022247
vt 0.445262 0.022541
vt 0.000000 0.000000
vt 0.103553 0.000000
vt 0.103553 1.000000
vt 0.000000 1.000000
vt 0.250000 0.000000
vt 0.353553 0.000000
vt 0.353553 1.000000
vt 0.250000 1.000000
vt 0.250000 0.000000
vt 0.250000 1.000000
vt -0.000000 0.000000
vt 0.103553 0.000000
vt 0.103553 1.000000
vt -0.000000 1.000000
vt 0.500000 1.000000
vt 0.353553 1.000000
vt 0.353553 0.000000
vt 0.500000 0.000000
vt 0.103553 0.000000
vt 0.103553 1.000000
vt 0.875000 0.123047
vt 0.875000 0.185547
vt 0.812500 0.185547
vt 0.812500 0.123047
vt 0.875000 0.248047
vt 0.875000 0.310547
vt 0.812500 0.310547
vt 0.812500 0.248047
vt 0.875000 0.373047
vt 0.875000 0.435547
vt 0.812500 0.435547
vt 0.812500 0.373047
vt 0.875000 0.060547
vt 0.812500 0.060547
vt 0.843750 0.498047
vt 0.843750 -0.001953
vt 0.750000 0.123047
vt 0.750000 0.060547
vt 0.750000 0.248047
vt 0.750000 0.185547
vt 0.750000 0.373047
vt 0.750000 0.310547
vt 0.781250 0.498047
vt 0.750000 0.435547
vt 0.781250 -0.001953
vt 0.687500 0.373047
vt 0.687500 0.310547
vt 0.718750 0.498047
vt 0.687500 0.435547
vt 0.718750 -0.001953
vt 0.687500 0.060547
vt 0.687500 0.185547
vt 0.687500 0.123047
vt 0.687500 0.248047
vt 0.656250 -0.001953
vt 0.625000 0.060547
vt 0.625000 0.185547
vt 0.625000 0.123047
vt 0.625000 0.310547
vt 0.625000 0.248047
vt 0.625000 0.435547
vt 0.625000 0.373047
vt 0.656250 0.498047
vt 0.562500 0.435547
vt 0.562500 0.373047
vt 0.562500 0.123047
vt 0.562500 0.060547
vt 0.562500 0.248047
vt 0.562500 0.185547
vt 0.562500 0.310547
vt 0.593750 0.498047
vt 0.593750 -0.001953
vt 0.500000 0.123047
vt 0.500000 0.060547
vt 0.500000 0.248047
vt 0.500000 0.185547
vt 0.500000 0.373047
vt 0.500000 0.310547
vt 0.531250 0.498047
vt 0.500000 0.435547
vt 0.531250 -0.001953
vt 1.000000 0.435547
vt 0.968750 0.498047
vt 0.937500 0.435547
vt 0.968750 -0.001953
vt 1.000000 0.060547
vt 0.937500 0.060547
vt 1.000000 0.123047
vt 1.000000 0.185547
vt 0.937500 0.185547
vt 0.937500 0.123047
vt 1.000000 0.248047
vt 1.000000 0.310547
vt 0.937500 0.310547
vt 0.937500 0.248047
vt 1.000000 0.373047
vt 0.937500 0.373047
vt 0.906250 0.498047
vt 0.906250 -0.001953
vt 0.291817 0.027870
vt 0.029170 0.290382
vt 0.000098 0.280983
vt 0.279684 0.000098
vt 0.199680 0.372853
vt 0.199329 0.622006
vt 0.000918 0.705901
vt 0.000100 0.292819
vt 0.090393 0.790258
vt 0.338944 0.792006
vt 0.423154 0.990057
vt 0.009523 0.989630
vt 0.263779 0.399652
vt 0.088803 0.222162
vt 0.169654 0.022541
vt 0.462126 0.315518
vt 0.376408 0.198138
vt 0.292271 0.000100
vt 0.373383 0.800101
vt 0.292513 0.999473
vt 0.078101 0.792006
vt 0.254997 0.616911
vt 0.454744 0.697428
vt 0.162311 0.990057
vt 0.256396 0.367662
vt 0.454744 0.283528
vt 0.353533 0.499950
vt 0.146467 0.499950
vt 0.000050 0.353533
vt 0.000050 0.146467
vt 0.146467 0.000050
vt 0.353533 0.000050
vt 0.499950 0.146468
vt 0.499950 0.353533
vt 0.056336 0.668161
vt 0.294834 0.960989
vt 0.282408 0.988818
vt 0.029321 0.679867
vt 0.065609 0.760606
vt 0.331213 0.492403
vt 0.359893 0.502857
vt 0.078053 0.788275
vt 0.395841 0.600505
vt 0.132091 0.321673
vt 0.143662 0.293465
vt 0.423873 0.588136
vt 0.469218 0.292144
vt 0.092494 0.278870
vt 0.080361 0.251098
vt 0.480789 0.263935
vt 0.088129 0.609097
vt 0.459334 0.620341
vt 0.471779 0.648010
vt 0.075702 0.636927
vt 0.296762 0.723717
vt 0.297410 0.339662
vt 0.325442 0.327293
vt 0.325442 0.734170
vn -0.3827 0.0000 -0.9239
vn 0.9239 0.0000 0.3827
vn 0.3827 0.0000 0.9239
vn -0.3827 0.0000 0.9239
vn -0.9239 0.0000 0.3827
vn -0.9239 0.0000 -0.3827
vn 0.3827 0.0000 -0.9239
vn 0.9239 0.0000 -0.3827
vn 0.0000 -1.0000 0.0000
vn 0.2706 0.7071 -0.6533
vn 0.6533 0.7071 -0.2706
vn 0.6533 0.7071 0.2706
vn 0.2706 0.7071 0.6533
vn -0.2706 0.7071 0.6533
vn -0.6533 0.7071 0.2706
vn -0.6533 0.7071 -0.2706
vn -0.2706 0.7071 -0.6533
vn 0.0000 1.0000 0.0000
vn -0.3647 -0.9188 0.1511
vn 0.3256 -0.5253 -0.7862
vn 0.3764 0.1807 -0.9087
vn 0.2243 0.8103 -0.5414
vn 0.2243 -0.8103 -0.5414
vn 0.3764 -0.1807 -0.9087
vn 0.3256 0.5253 -0.7862
vn 0.0805 0.9776 -0.1945
vn 0.0805 -0.9776 -0.1945
vn 0.5414 -0.8103 -0.2243
vn 0.9087 -0.1807 -0.3764
vn 0.7862 0.5253 -0.3256
vn 0.1945 0.9776 -0.0805
vn 0.1945 -0.9776 -0.0805
vn 0.7862 -0.5253 -0.3256
vn 0.9087 0.1807 -0.3764
vn 0.5414 0.8103 -0.2243
vn 0.7862 0.5253 0.3256
vn 0.1945 0.9776 0.0805
vn 0.1945 -0.9776 0.0805
vn 0.7862 -0.5253 0.3256
vn 0.9087 0.1807 0.3764
vn 0.5414 0.8103 0.2243
vn 0.5414 -0.8103 0.2243
vn 0.9087 -0.1807 0.3764
vn 0.0805 -0.9776 0.1945
vn 0.3256 -0.5253 0.7862
vn 0.3764 0.1807 0.9087
vn 0.2243 0.8103 0.5414
vn 0.2243 -0.8103 0.5414
vn 0.3764 -0.1807 0.9087
vn 0.3256 0.5253 0.7862
vn 0.0805 0.9776 0.1945
vn -0.2243 0.8103 0.5414
vn -0.2243 -0.8103 0.5414
vn -0.3764 -0.1807 0.9087
vn -0.3256 0.5253 0.7862
vn -0.0805 0.9776 0.1945
vn -0.0805 -0.9776 0.1945
vn -0.3256 -0.5253 0.7862
vn -0.3764 0.1807 0.9087
vn -0.5414 -0.8103 0.2243
vn -0.9087 -0.1807 0.3764
vn -0.7862 0.5253 0.3256
vn -0.1945 0.9776 0.0805
vn -0.1945 -0.9776 0.0805
vn -0.7862 -0.5253 0.3256
vn -0.9087 0.1807 0.3764
vn -0.5414 0.8103 0.2243
vn -0.1945 0.9776 -0.0805
vn -0.1945 -0.9776 -0.0805
vn -0.7862 -0.5253 -0.3256
vn -0.9087 0.1807 -0.3764
vn -0.5414 0.8103 -0.2243
vn -0.5414 -0.8103 -0.2243
vn -0.9087 -0.1807 -0.3764
vn -0.7862 0.5253 -0.3256
vn -0.3256 -0.5253 -0.7862
vn -0.3764 0.1807 -0.9087
vn -0.2243 0.8103 -0.5414
vn -0.2243 -0.8103 -0.5414
vn -0.3764 -0.1807 -0.9087
vn -0.3256 0.5253 -0.7862
vn -0.0805 0.9776 -0.1945
vn -0.0805 -0.9776 -0.1945
vn 0.1511 -0.9188 0.3647
vn 0.3647 -0.9188 -0.1511
vn -0.3647 -0.9188 -0.1511
vn -0.1511 -0.9188 0.3647
vn 0.3647 -0.9188 0.1511
vn 0.1511 -0.9188 -0.3647
vn -0.1511 -0.9188 -0.3647
usemtl None
s off
f 8/1/1 24/2/1 10/3/1 1/4/1
f 3/5/2 14/6/2 16/7/2 4/8/2
f 4/8/3 16/7/3 18/9/3 5/10/3
f 5/11/4 18/12/4 20/13/4 6/14/4
f 6/14/5 20/13/5 22/15/5 7/16/5
f 7/16/6 22/15/6 24/2/6 8/1/6
f 1/17/7 10/18/7 12/19/7 2/20/7
f 2/20/8 12/19/8 14/6/8 3/5/8
f 1/21/9 2/22/9 3/23/9 4/24/9 5/25/9 6/26/9 7/27/9 8/28/9
f 12/19/10 10/18/10 25/29/10 26/30/10
f 14/6/11 12/19/11 26/31/11 27/32/11
f 16/7/12 14/6/12 27/33/12 28/34/12
f 18/9/13 16/7/13 28/35/13 29/36/13
f 20/13/14 18/12/14 29/37/14 30/38/14
f 22/15/15 20/13/15 30/39/15 31/40/15
f 24/2/16 22/15/16 31/41/16 32/42/16
f 10/3/17 24/2/17 32/43/17 25/44/17
f 13/45/8 11/46/8 34/47/8 35/48/8
f 9/49/18 11/50/18 26/51/18 25/52/18
f 11/50/18 13/53/18 27/54/18 26/51/18
f 13/53/18 15/55/18 28/56/18 27/54/18
f 15/55/18 17/57/18 29/58/18 28/56/18
f 17/57/18 19/59/18 30/60/18 29/58/18
f 19/59/18 21/61/18 31/62/18 30/60/18
f 21/61/18 23/63/18 32/64/18 31/62/18
f 23/63/18 9/49/18 25/52/18 32/64/18
f 39/65/19 38/66/19 104/67/19 105/68/19
f 23/69/6 21/70/6 39/71/6 40/72/6
f 19/73/4 17/74/4 37/75/4 38/76/4
f 15/77/2 13/45/2 35/48/2 36/78/2
f 11/79/7 9/80/7 33/81/7 34/82/7
f 9/83/1 23/84/1 40/85/1 33/86/1
f 21/70/5 19/73/5 38/76/5 39/71/5
f 17/87/3 15/77/3 36/78/3 37/88/3
f 42/89/20 98/90/20 48/91/20 49/92/20
f 41/93/21 97/94/21 46/95/21 47/96/21
f 96/97/22 95/98/22 44/99/22 45/100/22
f 43/101/23 42/89/23 49/92/23 50/102/23
f 98/90/24 41/93/24 47/96/24 48/91/24
f 97/94/25 96/97/25 45/100/25 46/95/25
f 95/98/26 94/103/26 44/99/26
f 93/104/27 43/101/27 50/102/27
f 50/102/28 49/92/28 56/105/28 57/106/28
f 48/91/29 47/96/29 54/107/29 55/108/29
f 46/95/30 45/100/30 52/109/30 53/110/30
f 44/99/31 94/111/31 51/112/31
f 93/113/32 50/102/32 57/106/32
f 49/92/33 48/91/33 55/108/33 56/105/33
f 47/96/34 46/95/34 53/110/34 54/107/34
f 45/100/35 44/99/35 51/112/35 52/109/35
f 53/110/36 52/109/36 59/114/36 60/115/36
f 51/112/37 94/116/37 58/117/37
f 93/118/38 57/106/38 64/119/38
f 56/105/39 55/108/39 62/120/39 63/121/39
f 54/107/40 53/110/40 60/115/40 61/122/40
f 52/109/41 51/112/41 58/117/41 59/114/41
f 57/106/42 56/105/42 63/121/42 64/119/42
f 55/108/43 54/107/43 61/122/43 62/120/43
f 93/123/44 64/119/44 71/124/44
f 63/121/45 62/120/45 69/125/45 70/126/45
f 61/122/46 60/115/46 67/127/46 68/128/46
f 59/114/47 58/117/47 65/129/47 66/130/47
f 64/119/48 63/121/48 70/126/48 71/124/48
f 62/120/49 61/122/49 68/128/49 69/125/49
f 60/115/50 59/114/50 66/130/50 67/127/50
f 58/117/51 94/131/51 65/129/51
f 66/130/52 65/129/52 72/132/52 73/133/52
f 71/124/53 70/126/53 77/134/53 78/135/53
f 69/125/54 68/128/54 75/136/54 76/137/54
f 67/127/55 66/130/55 73/133/55 74/138/55
f 65/129/56 94/139/56 72/132/56
f 93/140/57 71/124/57 78/135/57
f 70/126/58 69/125/58 76/137/58 77/134/58
f 68/128/59 67/127/59 74/138/59 75/136/59
f 78/135/60 77/134/60 84/141/60 85/142/60
f 76/137/61 75/136/61 82/143/61 83/144/61
f 74/138/62 73/133/62 80/145/62 81/146/62
f 72/132/63 94/147/63 79/148/63
f 93/149/64 78/135/64 85/142/64
f 77/134/65 76/137/65 83/144/65 84/141/65
f 75/136/66 74/138/66 81/146/66 82/143/66
f 73/133/67 72/132/67 79/148/67 80/145/67
f 79/150/68 94/151/68 86/152/68
f 93/153/69 85/154/69 92/155/69
f 84/156/70 83/157/70 90/158/70 91/159/70
f 82/160/71 81/161/71 88/162/71 89/163/71
f 80/164/72 79/150/72 86/152/72 87/165/72
f 85/154/73 84/156/73 91/159/73 92/155/73
f 83/157/74 82/160/74 89/163/74 90/158/74
f 81/161/75 80/164/75 87/165/75 88/162/75
f 91/159/76 90/158/76 98/90/76 42/89/76
f 89/163/77 88/162/77 97/94/77 41/93/77
f 87/165/78 86/152/78 95/98/78 96/97/78
f 92/155/79 91/159/79 42/89/79 43/101/79
f 90/158/80 89/163/80 41/93/80 98/90/80
f 88/162/81 87/165/81 96/97/81 97/94/81
f 86/152/82 94/166/82 95/98/82
f 93/167/83 92/155/83 43/101/83
f 106/168/6 105/169/6 113/170/6 114/171/6
f 37/172/84 36/173/84 102/174/84 103/175/84
f 35/176/85 34/177/85 100/178/85 101/179/85
f 40/180/86 39/181/86 105/182/86 106/183/86
f 38/184/87 37/172/87 103/175/87 104/185/87
f 36/173/88 35/186/88 101/187/88 102/174/88
f 34/188/89 33/189/89 99/190/89 100/191/89
f 33/189/90 40/192/90 106/193/90 99/190/90
f 108/194/18 107/195/18 114/196/18 113/197/18 112/198/18 111/199/18 110/200/18 109/201/18
f 104/202/4 103/203/4 111/204/4 112/205/4
f 102/206/2 101/207/2 109/208/2 110/209/2
f 100/210/7 99/211/7 107/212/7 108/213/7
f 99/214/1 106/215/1 114/216/1 107/217/1
f 105/169/5 104/202/5 112/205/5 113/170/5
f 103/218/3 102/219/3 110/220/3 111/221/3
f 101/222/8 100/223/8 108/224/8 109/225/8
